{
	"asset":{
		"generator":"Khronos glTF Blender I/O v4.1.62",
		"version":"2.0"
	},
	"scene":0,
	"scenes":[
		{
			"name":"Scene",
			"nodes":[
				0
			]
		}
	],
	"nodes":[
		{
			"mesh":0,
			"name":"flatEarth_lands_lpEarthMat_0"
		}
	],
	"materials":[
		{
			"doubleSided":true,
			"name":"lpEarthMat",
			"pbrMetallicRoughness":{
				"baseColorTexture":{
					"index":0
				},
				"metallicFactor":0,
				"metallicRoughnessTexture":{
					"index":1
				}
			}
		}
	],
	"meshes":[
		{
			"name":"flatEarth_lands_lpEarthMat_0",
			"primitives":[
				{
					"attributes":{
						"POSITION":0,
						"NORMAL":1,
						"TEXCOORD_0":2
					},
					"indices":3,
					"material":0
				}
			]
		}
	],
	"textures":[
		{
			"sampler":0,
			"source":0
		},
		{
			"sampler":0,
			"source":1
		}
	],
	"images":[
		{
			"mimeType":"image/png",
			"name":"2020f27eb07341bc9ab53a302ebbccca_RGB_lp_earth_Diffuse",
			"uri":"textures/2020f27eb07341bc9ab53a302ebbccca_RGB_lp_earth_Diffuse.png"
		},
		{
			"mimeType":"image/png",
			"name":"54acfa11130c4db2bc42b0a0c2e18d95_R_lp_earth_Glossiness",
			"uri":"textures/54acfa11130c4db2bc42b0a0c2e18d95_R_lp_earth_Glossiness.png"
		}
	],
	"accessors":[
		{
			"bufferView":0,
			"componentType":5126,
			"count":9372,
			"max":[
				53.85794448852539,
				39.78773498535156,
				52.04463577270508
			],
			"min":[
				-58.61610794067383,
				-72.30844116210938,
				-59.35270309448242
			],
			"type":"VEC3"
		},
		{
			"bufferView":1,
			"componentType":5126,
			"count":9372,
			"type":"VEC3"
		},
		{
			"bufferView":2,
			"componentType":5126,
			"count":9372,
			"type":"VEC2"
		},
		{
			"bufferView":3,
			"componentType":5123,
			"count":11364,
			"type":"SCALAR"
		}
	],
	"bufferViews":[
		{
			"buffer":0,
			"byteLength":112464,
			"byteOffset":0,
			"target":34962
		},
		{
			"buffer":0,
			"byteLength":112464,
			"byteOffset":112464,
			"target":34962
		},
		{
			"buffer":0,
			"byteLength":74976,
			"byteOffset":224928,
			"target":34962
		},
		{
			"buffer":0,
			"byteLength":22728,
			"byteOffset":299904,
			"target":34963
		}
	],
	"samplers":[
		{
			"magFilter":9729,
			"minFilter":9987
		}
	],
	"buffers":[
		{
			"byteLength":322632,
			"uri":"earth.bin"
		}
	]
}
