{
	"asset":{
		"generator":"Khronos glTF Blender I/O v4.1.62",
		"version":"2.0"
	},
	"extensionsUsed":[
		"KHR_materials_unlit"
	],
	"scene":0,
	"scenes":[
		{
			"name":"Scene",
			"nodes":[
				0
			]
		}
	],
	"nodes":[
		{
			"mesh":0,
			"name":"--5_53226.Shape.001"
		}
	],
	"materials":[
		{
			"doubleSided":true,
			"extensions":{
				"KHR_materials_unlit":{}
			},
			"name":"Male_Arms",
			"pbrMetallicRoughness":{
				"baseColorTexture":{
					"index":0
				},
				"metallicFactor":0,
				"roughnessFactor":0.9
			}
		},
		{
			"alphaMode":"BLEND",
			"doubleSided":true,
			"extensions":{
				"KHR_materials_unlit":{}
			},
			"name":"SARGAY--5_53226_Bangs-Hair1",
			"pbrMetallicRoughness":{
				"baseColorTexture":{
					"index":1
				},
				"metallicFactor":0,
				"roughnessFactor":0.9
			}
		},
		{
			"doubleSided":true,
			"extensions":{
				"KHR_materials_unlit":{}
			},
			"name":"Jeans_10073_MainPants",
			"pbrMetallicRoughness":{
				"baseColorTexture":{
					"index":2
				},
				"metallicFactor":0,
				"roughnessFactor":0.9
			}
		},
		{
			"doubleSided":true,
			"extensions":{
				"KHR_materials_unlit":{}
			},
			"name":"Shirt_16384_MainShirt",
			"pbrMetallicRoughness":{
				"baseColorTexture":{
					"index":3
				},
				"metallicFactor":0,
				"roughnessFactor":0.9
			}
		},
		{
			"doubleSided":true,
			"extensions":{
				"KHR_materials_unlit":{}
			},
			"name":"Male_Face",
			"pbrMetallicRoughness":{
				"baseColorTexture":{
					"index":4
				},
				"metallicFactor":0,
				"roughnessFactor":0.9
			}
		},
		{
			"doubleSided":true,
			"extensions":{
				"KHR_materials_unlit":{}
			},
			"name":"Male_Torso",
			"pbrMetallicRoughness":{
				"baseColorTexture":{
					"index":5
				},
				"metallicFactor":0,
				"roughnessFactor":0.9
			}
		},
		{
			"doubleSided":true,
			"extensions":{
				"KHR_materials_unlit":{}
			},
			"name":"Male_Legs",
			"pbrMetallicRoughness":{
				"baseColorTexture":{
					"index":6
				},
				"metallicFactor":0,
				"roughnessFactor":0.9
			}
		}
	],
	"meshes":[
		{
			"name":"SARGAY-g8M-5_53226.001",
			"primitives":[
				{
					"attributes":{
						"POSITION":0,
						"NORMAL":1,
						"TEXCOORD_0":2
					},
					"indices":3,
					"material":0
				},
				{
					"attributes":{
						"POSITION":4,
						"NORMAL":5,
						"TEXCOORD_0":6
					},
					"indices":7,
					"material":1
				},
				{
					"attributes":{
						"POSITION":8,
						"NORMAL":9,
						"TEXCOORD_0":10
					},
					"indices":11,
					"material":2
				},
				{
					"attributes":{
						"POSITION":12,
						"NORMAL":13,
						"TEXCOORD_0":14
					},
					"indices":15,
					"material":3
				},
				{
					"attributes":{
						"POSITION":16,
						"NORMAL":17,
						"TEXCOORD_0":18
					},
					"indices":19,
					"material":4
				},
				{
					"attributes":{
						"POSITION":20,
						"NORMAL":21,
						"TEXCOORD_0":22
					},
					"indices":23,
					"material":5
				},
				{
					"attributes":{
						"POSITION":24,
						"NORMAL":25,
						"TEXCOORD_0":26
					},
					"indices":27,
					"material":6
				}
			]
		}
	],
	"textures":[
		{
			"sampler":0,
			"source":0
		},
		{
			"sampler":0,
			"source":1
		},
		{
			"sampler":0,
			"source":2
		},
		{
			"sampler":0,
			"source":3
		},
		{
			"sampler":0,
			"source":4
		},
		{
			"sampler":0,
			"source":5
		},
		{
			"sampler":0,
			"source":6
		}
	],
	"images":[
		{
			"mimeType":"image/jpeg",
			"name":"DevanshArms_1004",
			"uri":"textures/DevanshArms_1004.jpg"
		},
		{
			"mimeType":"image/png",
			"name":"d2_New Layered Image 23",
			"uri":"textures/d2_New%20Layered%20Image%2023.png"
		},
		{
			"mimeType":"image/jpeg",
			"name":"1001_Base_Color",
			"uri":"textures/1001_Base_Color.jpg"
		},
		{
			"mimeType":"image/jpeg",
			"name":"1001_Base_Color-1",
			"uri":"textures/1001_Base_Color-1.jpg"
		},
		{
			"mimeType":"image/jpeg",
			"name":"DevanshFace_1001",
			"uri":"textures/DevanshFace_1001.jpg"
		},
		{
			"mimeType":"image/jpeg",
			"name":"DevanshTorso_1002",
			"uri":"textures/DevanshTorso_1002.jpg"
		},
		{
			"mimeType":"image/jpeg",
			"name":"DevanshLegs_1003",
			"uri":"textures/DevanshLegs_1003.jpg"
		}
	],
	"accessors":[
		{
			"bufferView":0,
			"componentType":5126,
			"count":3060,
			"max":[
				0.138154074549675,
				0.12043455988168716,
				0.25459256768226624
			],
			"min":[
				-0.18912412226200104,
				-0.22544154524803162,
				-0.1103232353925705
			],
			"type":"VEC3"
		},
		{
			"bufferView":1,
			"componentType":5126,
			"count":3060,
			"type":"VEC3"
		},
		{
			"bufferView":2,
			"componentType":5126,
			"count":3060,
			"type":"VEC2"
		},
		{
			"bufferView":3,
			"componentType":5123,
			"count":16323,
			"type":"SCALAR"
		},
		{
			"bufferView":4,
			"componentType":5126,
			"count":26072,
			"max":[
				0.1705576628446579,
				0.1297089159488678,
				-0.011294465512037277
			],
			"min":[
				-0.07013280689716339,
				-0.05829968303442001,
				-0.20366694033145905
			],
			"type":"VEC3"
		},
		{
			"bufferView":5,
			"componentType":5126,
			"count":26072,
			"type":"VEC3"
		},
		{
			"bufferView":6,
			"componentType":5126,
			"count":26072,
			"type":"VEC2"
		},
		{
			"bufferView":7,
			"componentType":5123,
			"count":75084,
			"type":"SCALAR"
		},
		{
			"bufferView":8,
			"componentType":5126,
			"count":1247,
			"max":[
				-0.07246749103069305,
				0.016633545979857445,
				0.9516211748123169
			],
			"min":[
				-0.5415001511573792,
				-0.2930878698825836,
				0.23418493568897247
			],
			"type":"VEC3"
		},
		{
			"bufferView":9,
			"componentType":5126,
			"count":1247,
			"type":"VEC3"
		},
		{
			"bufferView":10,
			"componentType":5126,
			"count":1247,
			"type":"VEC2"
		},
		{
			"bufferView":11,
			"componentType":5123,
			"count":5907,
			"type":"SCALAR"
		},
		{
			"bufferView":12,
			"componentType":5126,
			"count":1302,
			"max":[
				0.0934637039899826,
				0.13630250096321106,
				0.4333701431751251
			],
			"min":[
				-0.4602694511413574,
				-0.24165382981300354,
				-0.0690978616476059
			],
			"type":"VEC3"
		},
		{
			"bufferView":13,
			"componentType":5126,
			"count":1302,
			"type":"VEC3"
		},
		{
			"bufferView":14,
			"componentType":5126,
			"count":1302,
			"type":"VEC2"
		},
		{
			"bufferView":15,
			"componentType":5123,
			"count":6831,
			"type":"SCALAR"
		},
		{
			"bufferView":16,
			"componentType":5126,
			"count":1602,
			"max":[
				0.14143501222133636,
				0.11014536768198013,
				0.04897727444767952
			],
			"min":[
				-0.008611571043729782,
				-0.04659237712621689,
				-0.14988772571086884
			],
			"type":"VEC3"
		},
		{
			"bufferView":17,
			"componentType":5126,
			"count":1602,
			"type":"VEC3"
		},
		{
			"bufferView":18,
			"componentType":5126,
			"count":1602,
			"type":"VEC2"
		},
		{
			"bufferView":19,
			"componentType":5123,
			"count":8913,
			"type":"SCALAR"
		},
		{
			"bufferView":20,
			"componentType":5126,
			"count":2769,
			"max":[
				0.11564986407756805,
				0.13241234421730042,
				0.5152144432067871
			],
			"min":[
				-0.45103806257247925,
				-0.2317328155040741,
				-0.18851880729198456
			],
			"type":"VEC3"
		},
		{
			"bufferView":21,
			"componentType":5126,
			"count":2769,
			"type":"VEC3"
		},
		{
			"bufferView":22,
			"componentType":5126,
			"count":2769,
			"type":"VEC2"
		},
		{
			"bufferView":23,
			"componentType":5123,
			"count":15471,
			"type":"SCALAR"
		},
		{
			"bufferView":24,
			"componentType":5126,
			"count":3040,
			"max":[
				-0.07799626886844635,
				-0.049640558660030365,
				1.0682333707809448
			],
			"min":[
				-0.6013141870498657,
				-0.278997004032135,
				0.3561515510082245
			],
			"type":"VEC3"
		},
		{
			"bufferView":25,
			"componentType":5126,
			"count":3040,
			"type":"VEC3"
		},
		{
			"bufferView":26,
			"componentType":5126,
			"count":3040,
			"type":"VEC2"
		},
		{
			"bufferView":27,
			"componentType":5123,
			"count":16377,
			"type":"SCALAR"
		}
	],
	"bufferViews":[
		{
			"buffer":0,
			"byteLength":36720,
			"byteOffset":0,
			"target":34962
		},
		{
			"buffer":0,
			"byteLength":36720,
			"byteOffset":36720,
			"target":34962
		},
		{
			"buffer":0,
			"byteLength":24480,
			"byteOffset":73440,
			"target":34962
		},
		{
			"buffer":0,
			"byteLength":32646,
			"byteOffset":97920,
			"target":34963
		},
		{
			"buffer":0,
			"byteLength":312864,
			"byteOffset":130568,
			"target":34962
		},
		{
			"buffer":0,
			"byteLength":312864,
			"byteOffset":443432,
			"target":34962
		},
		{
			"buffer":0,
			"byteLength":208576,
			"byteOffset":756296,
			"target":34962
		},
		{
			"buffer":0,
			"byteLength":150168,
			"byteOffset":964872,
			"target":34963
		},
		{
			"buffer":0,
			"byteLength":14964,
			"byteOffset":1115040,
			"target":34962
		},
		{
			"buffer":0,
			"byteLength":14964,
			"byteOffset":1130004,
			"target":34962
		},
		{
			"buffer":0,
			"byteLength":9976,
			"byteOffset":1144968,
			"target":34962
		},
		{
			"buffer":0,
			"byteLength":11814,
			"byteOffset":1154944,
			"target":34963
		},
		{
			"buffer":0,
			"byteLength":15624,
			"byteOffset":1166760,
			"target":34962
		},
		{
			"buffer":0,
			"byteLength":15624,
			"byteOffset":1182384,
			"target":34962
		},
		{
			"buffer":0,
			"byteLength":10416,
			"byteOffset":1198008,
			"target":34962
		},
		{
			"buffer":0,
			"byteLength":13662,
			"byteOffset":1208424,
			"target":34963
		},
		{
			"buffer":0,
			"byteLength":19224,
			"byteOffset":1222088,
			"target":34962
		},
		{
			"buffer":0,
			"byteLength":19224,
			"byteOffset":1241312,
			"target":34962
		},
		{
			"buffer":0,
			"byteLength":12816,
			"byteOffset":1260536,
			"target":34962
		},
		{
			"buffer":0,
			"byteLength":17826,
			"byteOffset":1273352,
			"target":34963
		},
		{
			"buffer":0,
			"byteLength":33228,
			"byteOffset":1291180,
			"target":34962
		},
		{
			"buffer":0,
			"byteLength":33228,
			"byteOffset":1324408,
			"target":34962
		},
		{
			"buffer":0,
			"byteLength":22152,
			"byteOffset":1357636,
			"target":34962
		},
		{
			"buffer":0,
			"byteLength":30942,
			"byteOffset":1379788,
			"target":34963
		},
		{
			"buffer":0,
			"byteLength":36480,
			"byteOffset":1410732,
			"target":34962
		},
		{
			"buffer":0,
			"byteLength":36480,
			"byteOffset":1447212,
			"target":34962
		},
		{
			"buffer":0,
			"byteLength":24320,
			"byteOffset":1483692,
			"target":34962
		},
		{
			"buffer":0,
			"byteLength":32754,
			"byteOffset":1508012,
			"target":34963
		}
	],
	"samplers":[
		{
			"magFilter":9729,
			"minFilter":9987
		}
	],
	"buffers":[
		{
			"byteLength":1540768,
			"uri":"child.bin"
		}
	]
}
