{
	"asset":{
		"generator":"Khronos glTF Blender I/O v4.1.62",
		"version":"2.0"
	},
	"scene":0,
	"scenes":[
		{
			"name":"Scene",
			"nodes":[
				0
			]
		}
	],
	"nodes":[
		{
			"mesh":0,
			"name":"Tree.023_Base_Material_0"
		}
	],
	"materials":[
		{
			"doubleSided":true,
			"name":"Base_Material",
			"pbrMetallicRoughness":{
				"baseColorTexture":{
					"index":0
				}
			}
		}
	],
	"meshes":[
		{
			"name":"Tree.023_Base_Material_0",
			"primitives":[
				{
					"attributes":{
						"POSITION":0,
						"NORMAL":1,
						"TEXCOORD_0":2
					},
					"indices":3,
					"material":0
				}
			]
		}
	],
	"textures":[
		{
			"sampler":0,
			"source":0
		}
	],
	"images":[
		{
			"mimeType":"image/png",
			"name":"1f0b2da02fa84f6ab69c2b3d5bd6593d_RGB_CT_Pallete",
			"uri":"textures/1f0b2da02fa84f6ab69c2b3d5bd6593d_RGB_CT_Pallete.png"
		}
	],
	"accessors":[
		{
			"bufferView":0,
			"componentType":5126,
			"count":1797,
			"max":[
				4.303272724151611,
				7.480910778045654,
				2.4772696495056152
			],
			"min":[
				-2.3421900272369385,
				-0.0025322556030005217,
				-2.591102123260498
			],
			"type":"VEC3"
		},
		{
			"bufferView":1,
			"componentType":5126,
			"count":1797,
			"type":"VEC3"
		},
		{
			"bufferView":2,
			"componentType":5126,
			"count":1797,
			"type":"VEC2"
		},
		{
			"bufferView":3,
			"componentType":5123,
			"count":7479,
			"type":"SCALAR"
		}
	],
	"bufferViews":[
		{
			"buffer":0,
			"byteLength":21564,
			"byteOffset":0,
			"target":34962
		},
		{
			"buffer":0,
			"byteLength":21564,
			"byteOffset":21564,
			"target":34962
		},
		{
			"buffer":0,
			"byteLength":14376,
			"byteOffset":43128,
			"target":34962
		},
		{
			"buffer":0,
			"byteLength":14958,
			"byteOffset":57504,
			"target":34963
		}
	],
	"samplers":[
		{
			"magFilter":9729,
			"minFilter":9987
		}
	],
	"buffers":[
		{
			"byteLength":72464,
			"uri":"tree2.bin"
		}
	]
}
