{
	"asset":{
		"generator":"Khronos glTF Blender I/O v4.1.62",
		"version":"2.0"
	},
	"scene":0,
	"scenes":[
		{
			"name":"Scene",
			"nodes":[
				0
			]
		}
	],
	"nodes":[
		{
			"mesh":0,
			"name":"Tree.026_Base_Material_0"
		}
	],
	"materials":[
		{
			"doubleSided":true,
			"name":"Base_Material",
			"pbrMetallicRoughness":{
				"baseColorTexture":{
					"index":0
				}
			}
		}
	],
	"meshes":[
		{
			"name":"Tree.026_Base_Material_0",
			"primitives":[
				{
					"attributes":{
						"POSITION":0,
						"NORMAL":1,
						"TEXCOORD_0":2
					},
					"indices":3,
					"material":0
				}
			]
		}
	],
	"textures":[
		{
			"sampler":0,
			"source":0
		}
	],
	"images":[
		{
			"mimeType":"image/png",
			"name":"1f0b2da02fa84f6ab69c2b3d5bd6593d_RGB_CT_Pallete",
			"uri":"textures/1f0b2da02fa84f6ab69c2b3d5bd6593d_RGB_CT_Pallete.png"
		}
	],
	"accessors":[
		{
			"bufferView":0,
			"componentType":5126,
			"count":727,
			"max":[
				2.4941298961639404,
				6.635984897613525,
				3.202820062637329
			],
			"min":[
				-4.159193515777588,
				-4.498660288732026e-08,
				-3.378735303878784
			],
			"type":"VEC3"
		},
		{
			"bufferView":1,
			"componentType":5126,
			"count":727,
			"type":"VEC3"
		},
		{
			"bufferView":2,
			"componentType":5126,
			"count":727,
			"type":"VEC2"
		},
		{
			"bufferView":3,
			"componentType":5123,
			"count":4098,
			"type":"SCALAR"
		}
	],
	"bufferViews":[
		{
			"buffer":0,
			"byteLength":8724,
			"byteOffset":0,
			"target":34962
		},
		{
			"buffer":0,
			"byteLength":8724,
			"byteOffset":8724,
			"target":34962
		},
		{
			"buffer":0,
			"byteLength":5816,
			"byteOffset":17448,
			"target":34962
		},
		{
			"buffer":0,
			"byteLength":8196,
			"byteOffset":23264,
			"target":34963
		}
	],
	"samplers":[
		{
			"magFilter":9729,
			"minFilter":9987
		}
	],
	"buffers":[
		{
			"byteLength":31460,
			"uri":"tree1.bin"
		}
	]
}
