{
	"asset":{
		"generator":"Khronos glTF Blender I/O v4.1.62",
		"version":"2.0"
	},
	"scene":0,
	"scenes":[
		{
			"name":"Scene",
			"nodes":[
				0
			]
		}
	],
	"nodes":[
		{
			"mesh":0,
			"name":"Tree.025_Base_Material_0"
		}
	],
	"materials":[
		{
			"doubleSided":true,
			"name":"Base_Material",
			"pbrMetallicRoughness":{
				"baseColorTexture":{
					"index":0
				}
			}
		}
	],
	"meshes":[
		{
			"name":"Tree.025_Base_Material_0",
			"primitives":[
				{
					"attributes":{
						"POSITION":0,
						"NORMAL":1,
						"TEXCOORD_0":2
					},
					"indices":3,
					"material":0
				}
			]
		}
	],
	"textures":[
		{
			"sampler":0,
			"source":0
		}
	],
	"images":[
		{
			"mimeType":"image/png",
			"name":"1f0b2da02fa84f6ab69c2b3d5bd6593d_RGB_CT_Pallete",
			"uri":"textures/1f0b2da02fa84f6ab69c2b3d5bd6593d_RGB_CT_Pallete.png"
		}
	],
	"accessors":[
		{
			"bufferView":0,
			"componentType":5126,
			"count":1413,
			"max":[
				1.4606882333755493,
				11.346426010131836,
				1.6662797927856445
			],
			"min":[
				-1.6838099956512451,
				-1.0781410431093263e-08,
				-1.6701215505599976
			],
			"type":"VEC3"
		},
		{
			"bufferView":1,
			"componentType":5126,
			"count":1413,
			"type":"VEC3"
		},
		{
			"bufferView":2,
			"componentType":5126,
			"count":1413,
			"type":"VEC2"
		},
		{
			"bufferView":3,
			"componentType":5123,
			"count":8250,
			"type":"SCALAR"
		}
	],
	"bufferViews":[
		{
			"buffer":0,
			"byteLength":16956,
			"byteOffset":0,
			"target":34962
		},
		{
			"buffer":0,
			"byteLength":16956,
			"byteOffset":16956,
			"target":34962
		},
		{
			"buffer":0,
			"byteLength":11304,
			"byteOffset":33912,
			"target":34962
		},
		{
			"buffer":0,
			"byteLength":16500,
			"byteOffset":45216,
			"target":34963
		}
	],
	"samplers":[
		{
			"magFilter":9729,
			"minFilter":9987
		}
	],
	"buffers":[
		{
			"byteLength":61716,
			"uri":"tree3.bin"
		}
	]
}
