{
	"asset":{
		"generator":"Khronos glTF Blender I/O v4.1.62",
		"version":"2.0"
	},
	"scene":0,
	"scenes":[
		{
			"name":"Scene",
			"nodes":[
				0
			]
		}
	],
	"nodes":[
		{
			"mesh":0,
			"name":"Cube.001"
		}
	],
	"materials":[
		{
			"doubleSided":true,
			"name":"poster",
			"pbrMetallicRoughness":{
				"baseColorTexture":{
					"index":0
				}
			}
		},
		{
			"doubleSided":true,
			"name":"white",
			"pbrMetallicRoughness":{
				"baseColorTexture":{
					"index":1
				},
				"metallicFactor":0,
				"roughnessFactor":0.5
			}
		},
		{
			"doubleSided":true,
			"name":"floor",
			"pbrMetallicRoughness":{
				"baseColorTexture":{
					"index":2
				}
			}
		},
		{
			"doubleSided":true,
			"name":"Wall",
			"pbrMetallicRoughness":{
				"baseColorTexture":{
					"index":3
				}
			}
		},
		{
			"doubleSided":true,
			"name":"wood",
			"pbrMetallicRoughness":{
				"baseColorTexture":{
					"index":4
				},
				"metallicFactor":0,
				"roughnessFactor":0
			}
		},
		{
			"doubleSided":true,
			"name":"cloth",
			"pbrMetallicRoughness":{
				"baseColorTexture":{
					"index":5
				}
			}
		},
		{
			"doubleSided":true,
			"name":"gold",
			"pbrMetallicRoughness":{
				"baseColorTexture":{
					"index":6
				}
			}
		}
	],
	"meshes":[
		{
			"name":"Cube.007",
			"primitives":[
				{
					"attributes":{
						"POSITION":0,
						"NORMAL":1,
						"TEXCOORD_0":2
					},
					"indices":3,
					"material":0
				},
				{
					"attributes":{
						"POSITION":4,
						"NORMAL":5,
						"TEXCOORD_0":6
					},
					"indices":7,
					"material":1
				},
				{
					"attributes":{
						"POSITION":8,
						"NORMAL":9,
						"TEXCOORD_0":10
					},
					"indices":11,
					"material":2
				},
				{
					"attributes":{
						"POSITION":12,
						"NORMAL":13,
						"TEXCOORD_0":14
					},
					"indices":15,
					"material":3
				},
				{
					"attributes":{
						"POSITION":16,
						"NORMAL":17,
						"TEXCOORD_0":18
					},
					"indices":19,
					"material":4
				},
				{
					"attributes":{
						"POSITION":20,
						"NORMAL":21,
						"TEXCOORD_0":22
					},
					"indices":23,
					"material":5
				},
				{
					"attributes":{
						"POSITION":24,
						"NORMAL":25,
						"TEXCOORD_0":26
					},
					"indices":27,
					"material":6
				}
			]
		}
	],
	"textures":[
		{
			"sampler":0,
			"source":0
		},
		{
			"sampler":0,
			"source":1
		},
		{
			"sampler":0,
			"source":2
		},
		{
			"sampler":0,
			"source":3
		},
		{
			"sampler":0,
			"source":4
		},
		{
			"sampler":0,
			"source":5
		},
		{
			"sampler":0,
			"source":6
		}
	],
	"images":[
		{
			"mimeType":"image/png",
			"name":"milk-and-mocha-milk-mocha",
			"uri":"textures/milk-and-mocha-milk-mocha.png"
		},
		{
			"mimeType":"image/png",
			"name":"white",
			"uri":"textures/white.png"
		},
		{
			"mimeType":"image/jpeg",
			"name":"83d2907cb5464ab69de9a592a92a539b_RGB_Berezasm",
			"uri":"textures/83d2907cb5464ab69de9a592a92a539b_RGB_Berezasm.jpg"
		},
		{
			"mimeType":"image/jpeg",
			"name":"1887442229264b8996a33c4d786aa642_RGB_68d62f9ba24fe972afc28cc3fef99789",
			"uri":"textures/1887442229264b8996a33c4d786aa642_RGB_68d62f9ba24fe972afc28cc3fef99789.jpg"
		},
		{
			"mimeType":"image/jpeg",
			"name":"wood",
			"uri":"textures/wood.jpg"
		},
		{
			"mimeType":"image/jpeg",
			"name":"3bee7dbe60e0491d8b3954e94f6672e8_RGB_54f5b86dbf18a5bdc35b36efa71fd9e3",
			"uri":"textures/3bee7dbe60e0491d8b3954e94f6672e8_RGB_54f5b86dbf18a5bdc35b36efa71fd9e3.jpg"
		},
		{
			"mimeType":"image/jpeg",
			"name":"72008b95650248c883fcf9a7900e5f2b_RGB_metalyel",
			"uri":"textures/72008b95650248c883fcf9a7900e5f2b_RGB_metalyel.jpg"
		}
	],
	"accessors":[
		{
			"bufferView":0,
			"componentType":5126,
			"count":2565,
			"max":[
				6.839723587036133,
				4.185143947601318,
				6.784550666809082
			],
			"min":[
				-0.8109331130981445,
				-0.32887721061706543,
				-0.26475048065185547
			],
			"type":"VEC3"
		},
		{
			"bufferView":1,
			"componentType":5126,
			"count":2565,
			"type":"VEC3"
		},
		{
			"bufferView":2,
			"componentType":5126,
			"count":2565,
			"type":"VEC2"
		},
		{
			"bufferView":3,
			"componentType":5123,
			"count":12540,
			"type":"SCALAR"
		},
		{
			"bufferView":4,
			"componentType":5126,
			"count":6578,
			"max":[
				2.419995069503784,
				0.6985533237457275,
				0.46295785903930664
			],
			"min":[
				1.4376338720321655,
				-0.2827160358428955,
				-0.2720332145690918
			],
			"type":"VEC3"
		},
		{
			"bufferView":5,
			"componentType":5126,
			"count":6578,
			"type":"VEC3"
		},
		{
			"bufferView":6,
			"componentType":5126,
			"count":6578,
			"type":"VEC2"
		},
		{
			"bufferView":7,
			"componentType":5123,
			"count":7188,
			"type":"SCALAR"
		},
		{
			"bufferView":8,
			"componentType":5126,
			"count":110,
			"max":[
				6.704148292541504,
				3.997704029083252,
				6.670982360839844
			],
			"min":[
				-1.295851230621338,
				-0.2923004627227783,
				-0.32901740074157715
			],
			"type":"VEC3"
		},
		{
			"bufferView":9,
			"componentType":5126,
			"count":110,
			"type":"VEC3"
		},
		{
			"bufferView":10,
			"componentType":5126,
			"count":110,
			"type":"VEC2"
		},
		{
			"bufferView":11,
			"componentType":5123,
			"count":162,
			"type":"SCALAR"
		},
		{
			"bufferView":12,
			"componentType":5126,
			"count":338783,
			"max":[
				6.716291427612305,
				4.919416427612305,
				6.710944175720215
			],
			"min":[
				-1.3834621906280518,
				-0.37647509574890137,
				-0.3565549850463867
			],
			"type":"VEC3"
		},
		{
			"bufferView":13,
			"componentType":5126,
			"count":338783,
			"type":"VEC3"
		},
		{
			"bufferView":14,
			"componentType":5126,
			"count":338783,
			"type":"VEC2"
		},
		{
			"bufferView":15,
			"componentType":5125,
			"count":339504,
			"type":"SCALAR"
		},
		{
			"bufferView":16,
			"componentType":5126,
			"count":270,
			"max":[
				6.253080368041992,
				0.6776607036590576,
				3.735198736190796
			],
			"min":[
				1.4583730697631836,
				-0.2558317184448242,
				-0.2098073959350586
			],
			"type":"VEC3"
		},
		{
			"bufferView":17,
			"componentType":5126,
			"count":270,
			"type":"VEC3"
		},
		{
			"bufferView":18,
			"componentType":5126,
			"count":270,
			"type":"VEC2"
		},
		{
			"bufferView":19,
			"componentType":5123,
			"count":312,
			"type":"SCALAR"
		},
		{
			"bufferView":20,
			"componentType":5126,
			"count":4763,
			"max":[
				6.154964447021484,
				0.5930564403533936,
				3.717902183532715
			],
			"min":[
				3.7957992553710938,
				0.47772347927093506,
				-0.10592484474182129
			],
			"type":"VEC3"
		},
		{
			"bufferView":21,
			"componentType":5126,
			"count":4763,
			"type":"VEC3"
		},
		{
			"bufferView":22,
			"componentType":5126,
			"count":4763,
			"type":"VEC2"
		},
		{
			"bufferView":23,
			"componentType":5123,
			"count":6504,
			"type":"SCALAR"
		},
		{
			"bufferView":24,
			"componentType":5126,
			"count":251,
			"max":[
				2.7204105854034424,
				3.281391143798828,
				0.24591898918151855
			],
			"min":[
				1.2609838247299194,
				1.0100805759429932,
				-0.28452229499816895
			],
			"type":"VEC3"
		},
		{
			"bufferView":25,
			"componentType":5126,
			"count":251,
			"type":"VEC3"
		},
		{
			"bufferView":26,
			"componentType":5126,
			"count":251,
			"type":"VEC2"
		},
		{
			"bufferView":27,
			"componentType":5123,
			"count":1044,
			"type":"SCALAR"
		}
	],
	"bufferViews":[
		{
			"buffer":0,
			"byteLength":30780,
			"byteOffset":0,
			"target":34962
		},
		{
			"buffer":0,
			"byteLength":30780,
			"byteOffset":30780,
			"target":34962
		},
		{
			"buffer":0,
			"byteLength":20520,
			"byteOffset":61560,
			"target":34962
		},
		{
			"buffer":0,
			"byteLength":25080,
			"byteOffset":82080,
			"target":34963
		},
		{
			"buffer":0,
			"byteLength":78936,
			"byteOffset":107160,
			"target":34962
		},
		{
			"buffer":0,
			"byteLength":78936,
			"byteOffset":186096,
			"target":34962
		},
		{
			"buffer":0,
			"byteLength":52624,
			"byteOffset":265032,
			"target":34962
		},
		{
			"buffer":0,
			"byteLength":14376,
			"byteOffset":317656,
			"target":34963
		},
		{
			"buffer":0,
			"byteLength":1320,
			"byteOffset":332032,
			"target":34962
		},
		{
			"buffer":0,
			"byteLength":1320,
			"byteOffset":333352,
			"target":34962
		},
		{
			"buffer":0,
			"byteLength":880,
			"byteOffset":334672,
			"target":34962
		},
		{
			"buffer":0,
			"byteLength":324,
			"byteOffset":335552,
			"target":34963
		},
		{
			"buffer":0,
			"byteLength":4065396,
			"byteOffset":335876,
			"target":34962
		},
		{
			"buffer":0,
			"byteLength":4065396,
			"byteOffset":4401272,
			"target":34962
		},
		{
			"buffer":0,
			"byteLength":2710264,
			"byteOffset":8466668,
			"target":34962
		},
		{
			"buffer":0,
			"byteLength":1358016,
			"byteOffset":11176932,
			"target":34963
		},
		{
			"buffer":0,
			"byteLength":3240,
			"byteOffset":12534948,
			"target":34962
		},
		{
			"buffer":0,
			"byteLength":3240,
			"byteOffset":12538188,
			"target":34962
		},
		{
			"buffer":0,
			"byteLength":2160,
			"byteOffset":12541428,
			"target":34962
		},
		{
			"buffer":0,
			"byteLength":624,
			"byteOffset":12543588,
			"target":34963
		},
		{
			"buffer":0,
			"byteLength":57156,
			"byteOffset":12544212,
			"target":34962
		},
		{
			"buffer":0,
			"byteLength":57156,
			"byteOffset":12601368,
			"target":34962
		},
		{
			"buffer":0,
			"byteLength":38104,
			"byteOffset":12658524,
			"target":34962
		},
		{
			"buffer":0,
			"byteLength":13008,
			"byteOffset":12696628,
			"target":34963
		},
		{
			"buffer":0,
			"byteLength":3012,
			"byteOffset":12709636,
			"target":34962
		},
		{
			"buffer":0,
			"byteLength":3012,
			"byteOffset":12712648,
			"target":34962
		},
		{
			"buffer":0,
			"byteLength":2008,
			"byteOffset":12715660,
			"target":34962
		},
		{
			"buffer":0,
			"byteLength":2088,
			"byteOffset":12717668,
			"target":34963
		}
	],
	"samplers":[
		{
			"magFilter":9729,
			"minFilter":9987
		}
	],
	"buffers":[
		{
			"byteLength":12719756,
			"uri":"room3.bin"
		}
	]
}
