{
	"asset":{
		"generator":"Khronos glTF Blender I/O v4.1.62",
		"version":"2.0"
	},
	"scene":0,
	"scenes":[
		{
			"name":"Scene",
			"nodes":[
				0
			]
		}
	],
	"nodes":[
		{
			"mesh":0,
			"name":"Cube.001"
		}
	],
	"materials":[
		{
			"doubleSided":true,
			"name":"lamp-side -dark.001",
			"pbrMetallicRoughness":{
				"baseColorFactor":[
					0.035637013614177704,
					0.017085079103708267,
					0.010630599223077297,
					1
				],
				"metallicFactor":0.06181818246841431,
				"roughnessFactor":0.5581818222999573
			}
		},
		{
			"doubleSided":true,
			"name":"poster",
			"pbrMetallicRoughness":{
				"baseColorTexture":{
					"index":0
				}
			}
		},
		{
			"doubleSided":true,
			"name":"white",
			"pbrMetallicRoughness":{
				"metallicFactor":0,
				"roughnessFactor":0.5
			}
		},
		{
			"doubleSided":true,
			"name":"floor",
			"pbrMetallicRoughness":{
				"baseColorTexture":{
					"index":1
				}
			}
		},
		{
			"doubleSided":true,
			"name":"Wall",
			"pbrMetallicRoughness":{
				"baseColorTexture":{
					"index":2
				}
			}
		},
		{
			"doubleSided":true,
			"name":"wood",
			"pbrMetallicRoughness":{
				"baseColorTexture":{
					"index":3
				},
				"metallicFactor":0,
				"roughnessFactor":0
			}
		},
		{
			"doubleSided":true,
			"name":"cloth",
			"pbrMetallicRoughness":{
				"baseColorTexture":{
					"index":4
				}
			}
		},
		{
			"doubleSided":true,
			"name":"gold",
			"pbrMetallicRoughness":{
				"baseColorTexture":{
					"index":5
				}
			}
		},
		{
			"doubleSided":true,
			"name":"Lamp_base_material.001",
			"pbrMetallicRoughness":{
				"baseColorFactor":[
					1,
					0.7779006958007812,
					0.04550556093454361,
					1
				],
				"metallicFactor":0,
				"roughnessFactor":0.5
			}
		}
	],
	"meshes":[
		{
			"name":"Cube.007",
			"primitives":[
				{
					"attributes":{
						"POSITION":0,
						"NORMAL":1,
						"TEXCOORD_0":2
					},
					"indices":3,
					"material":0
				},
				{
					"attributes":{
						"POSITION":4,
						"NORMAL":5,
						"TEXCOORD_0":6
					},
					"indices":7,
					"material":1
				},
				{
					"attributes":{
						"POSITION":8,
						"NORMAL":9,
						"TEXCOORD_0":10
					},
					"indices":11,
					"material":2
				},
				{
					"attributes":{
						"POSITION":12,
						"NORMAL":13,
						"TEXCOORD_0":14
					},
					"indices":15,
					"material":3
				},
				{
					"attributes":{
						"POSITION":16,
						"NORMAL":17,
						"TEXCOORD_0":18
					},
					"indices":19,
					"material":4
				},
				{
					"attributes":{
						"POSITION":20,
						"NORMAL":21,
						"TEXCOORD_0":22
					},
					"indices":23,
					"material":5
				},
				{
					"attributes":{
						"POSITION":24,
						"NORMAL":25,
						"TEXCOORD_0":26
					},
					"indices":27,
					"material":6
				},
				{
					"attributes":{
						"POSITION":28,
						"NORMAL":29,
						"TEXCOORD_0":30
					},
					"indices":31,
					"material":7
				},
				{
					"attributes":{
						"POSITION":32,
						"NORMAL":33,
						"TEXCOORD_0":34
					},
					"indices":35,
					"material":8
				}
			]
		}
	],
	"textures":[
		{
			"sampler":0,
			"source":0
		},
		{
			"sampler":0,
			"source":1
		},
		{
			"sampler":0,
			"source":2
		},
		{
			"sampler":0,
			"source":3
		},
		{
			"sampler":0,
			"source":4
		},
		{
			"sampler":0,
			"source":5
		}
	],
	"images":[
		{
			"mimeType":"image/png",
			"name":"milk-and-mocha-milk-mocha",
			"uri":"textures/milk-and-mocha-milk-mocha.png"
		},
		{
			"mimeType":"image/jpeg",
			"name":"83d2907cb5464ab69de9a592a92a539b_RGB_Berezasm",
			"uri":"textures/83d2907cb5464ab69de9a592a92a539b_RGB_Berezasm.jpg"
		},
		{
			"mimeType":"image/jpeg",
			"name":"1887442229264b8996a33c4d786aa642_RGB_68d62f9ba24fe972afc28cc3fef99789",
			"uri":"textures/1887442229264b8996a33c4d786aa642_RGB_68d62f9ba24fe972afc28cc3fef99789.jpg"
		},
		{
			"mimeType":"image/jpeg",
			"name":"wood",
			"uri":"textures/wood.jpg"
		},
		{
			"mimeType":"image/jpeg",
			"name":"3bee7dbe60e0491d8b3954e94f6672e8_RGB_54f5b86dbf18a5bdc35b36efa71fd9e3",
			"uri":"textures/3bee7dbe60e0491d8b3954e94f6672e8_RGB_54f5b86dbf18a5bdc35b36efa71fd9e3.jpg"
		},
		{
			"mimeType":"image/jpeg",
			"name":"72008b95650248c883fcf9a7900e5f2b_RGB_metalyel",
			"uri":"textures/72008b95650248c883fcf9a7900e5f2b_RGB_metalyel.jpg"
		}
	],
	"accessors":[
		{
			"bufferView":0,
			"componentType":5126,
			"count":2522,
			"max":[
				6.839723587036133,
				4.185143947601318,
				6.784550666809082
			],
			"min":[
				-0.8109331130981445,
				-0.32887721061706543,
				-0.09560632705688477
			],
			"type":"VEC3"
		},
		{
			"bufferView":1,
			"componentType":5126,
			"count":2522,
			"type":"VEC3"
		},
		{
			"bufferView":2,
			"componentType":5126,
			"count":2522,
			"type":"VEC2"
		},
		{
			"bufferView":3,
			"componentType":5123,
			"count":12504,
			"type":"SCALAR"
		},
		{
			"bufferView":4,
			"componentType":5126,
			"count":27,
			"max":[
				2.6796350479125977,
				3.243931770324707,
				-0.2609701156616211
			],
			"min":[
				1.3017611503601074,
				1.5112581253051758,
				-0.26475048065185547
			],
			"type":"VEC3"
		},
		{
			"bufferView":5,
			"componentType":5126,
			"count":27,
			"type":"VEC3"
		},
		{
			"bufferView":6,
			"componentType":5126,
			"count":27,
			"type":"VEC2"
		},
		{
			"bufferView":7,
			"componentType":5123,
			"count":36,
			"type":"SCALAR"
		},
		{
			"bufferView":8,
			"componentType":5126,
			"count":6578,
			"max":[
				2.419995069503784,
				0.6985533237457275,
				0.46295785903930664
			],
			"min":[
				1.4376338720321655,
				-0.2827160358428955,
				-0.2720332145690918
			],
			"type":"VEC3"
		},
		{
			"bufferView":9,
			"componentType":5126,
			"count":6578,
			"type":"VEC3"
		},
		{
			"bufferView":10,
			"componentType":5126,
			"count":6578,
			"type":"VEC2"
		},
		{
			"bufferView":11,
			"componentType":5123,
			"count":7188,
			"type":"SCALAR"
		},
		{
			"bufferView":12,
			"componentType":5126,
			"count":102,
			"max":[
				6.704148292541504,
				3.997704029083252,
				6.670982360839844
			],
			"min":[
				-1.295851230621338,
				-0.2923004627227783,
				-0.32901740074157715
			],
			"type":"VEC3"
		},
		{
			"bufferView":13,
			"componentType":5126,
			"count":102,
			"type":"VEC3"
		},
		{
			"bufferView":14,
			"componentType":5126,
			"count":102,
			"type":"VEC2"
		},
		{
			"bufferView":15,
			"componentType":5123,
			"count":162,
			"type":"SCALAR"
		},
		{
			"bufferView":16,
			"componentType":5126,
			"count":338776,
			"max":[
				6.716291427612305,
				4.919416427612305,
				6.710944175720215
			],
			"min":[
				-1.3834621906280518,
				-0.37647509574890137,
				-0.3565549850463867
			],
			"type":"VEC3"
		},
		{
			"bufferView":17,
			"componentType":5126,
			"count":338776,
			"type":"VEC3"
		},
		{
			"bufferView":18,
			"componentType":5126,
			"count":338776,
			"type":"VEC2"
		},
		{
			"bufferView":19,
			"componentType":5125,
			"count":339504,
			"type":"SCALAR"
		},
		{
			"bufferView":20,
			"componentType":5126,
			"count":270,
			"max":[
				6.253080368041992,
				0.6776607036590576,
				3.735198736190796
			],
			"min":[
				1.4583730697631836,
				-0.2558317184448242,
				-0.2098073959350586
			],
			"type":"VEC3"
		},
		{
			"bufferView":21,
			"componentType":5126,
			"count":270,
			"type":"VEC3"
		},
		{
			"bufferView":22,
			"componentType":5126,
			"count":270,
			"type":"VEC2"
		},
		{
			"bufferView":23,
			"componentType":5123,
			"count":312,
			"type":"SCALAR"
		},
		{
			"bufferView":24,
			"componentType":5126,
			"count":4761,
			"max":[
				6.154964447021484,
				0.5930564403533936,
				3.717902183532715
			],
			"min":[
				3.7957992553710938,
				0.47772347927093506,
				-0.10592484474182129
			],
			"type":"VEC3"
		},
		{
			"bufferView":25,
			"componentType":5126,
			"count":4761,
			"type":"VEC3"
		},
		{
			"bufferView":26,
			"componentType":5126,
			"count":4761,
			"type":"VEC2"
		},
		{
			"bufferView":27,
			"componentType":5123,
			"count":6504,
			"type":"SCALAR"
		},
		{
			"bufferView":28,
			"componentType":5126,
			"count":59,
			"max":[
				2.7204105854034424,
				3.281391143798828,
				-0.25160694122314453
			],
			"min":[
				1.2609838247299194,
				1.4737958908081055,
				-0.28452229499816895
			],
			"type":"VEC3"
		},
		{
			"bufferView":29,
			"componentType":5126,
			"count":59,
			"type":"VEC3"
		},
		{
			"bufferView":30,
			"componentType":5126,
			"count":59,
			"type":"VEC2"
		},
		{
			"bufferView":31,
			"componentType":5123,
			"count":84,
			"type":"SCALAR"
		},
		{
			"bufferView":32,
			"componentType":5126,
			"count":192,
			"max":[
				2.2100117206573486,
				1.186336874961853,
				0.24591898918151855
			],
			"min":[
				1.6306625604629517,
				1.0100805759429932,
				-0.20778369903564453
			],
			"type":"VEC3"
		},
		{
			"bufferView":33,
			"componentType":5126,
			"count":192,
			"type":"VEC3"
		},
		{
			"bufferView":34,
			"componentType":5126,
			"count":192,
			"type":"VEC2"
		},
		{
			"bufferView":35,
			"componentType":5123,
			"count":960,
			"type":"SCALAR"
		}
	],
	"bufferViews":[
		{
			"buffer":0,
			"byteLength":30264,
			"byteOffset":0,
			"target":34962
		},
		{
			"buffer":0,
			"byteLength":30264,
			"byteOffset":30264,
			"target":34962
		},
		{
			"buffer":0,
			"byteLength":20176,
			"byteOffset":60528,
			"target":34962
		},
		{
			"buffer":0,
			"byteLength":25008,
			"byteOffset":80704,
			"target":34963
		},
		{
			"buffer":0,
			"byteLength":324,
			"byteOffset":105712,
			"target":34962
		},
		{
			"buffer":0,
			"byteLength":324,
			"byteOffset":106036,
			"target":34962
		},
		{
			"buffer":0,
			"byteLength":216,
			"byteOffset":106360,
			"target":34962
		},
		{
			"buffer":0,
			"byteLength":72,
			"byteOffset":106576,
			"target":34963
		},
		{
			"buffer":0,
			"byteLength":78936,
			"byteOffset":106648,
			"target":34962
		},
		{
			"buffer":0,
			"byteLength":78936,
			"byteOffset":185584,
			"target":34962
		},
		{
			"buffer":0,
			"byteLength":52624,
			"byteOffset":264520,
			"target":34962
		},
		{
			"buffer":0,
			"byteLength":14376,
			"byteOffset":317144,
			"target":34963
		},
		{
			"buffer":0,
			"byteLength":1224,
			"byteOffset":331520,
			"target":34962
		},
		{
			"buffer":0,
			"byteLength":1224,
			"byteOffset":332744,
			"target":34962
		},
		{
			"buffer":0,
			"byteLength":816,
			"byteOffset":333968,
			"target":34962
		},
		{
			"buffer":0,
			"byteLength":324,
			"byteOffset":334784,
			"target":34963
		},
		{
			"buffer":0,
			"byteLength":4065312,
			"byteOffset":335108,
			"target":34962
		},
		{
			"buffer":0,
			"byteLength":4065312,
			"byteOffset":4400420,
			"target":34962
		},
		{
			"buffer":0,
			"byteLength":2710208,
			"byteOffset":8465732,
			"target":34962
		},
		{
			"buffer":0,
			"byteLength":1358016,
			"byteOffset":11175940,
			"target":34963
		},
		{
			"buffer":0,
			"byteLength":3240,
			"byteOffset":12533956,
			"target":34962
		},
		{
			"buffer":0,
			"byteLength":3240,
			"byteOffset":12537196,
			"target":34962
		},
		{
			"buffer":0,
			"byteLength":2160,
			"byteOffset":12540436,
			"target":34962
		},
		{
			"buffer":0,
			"byteLength":624,
			"byteOffset":12542596,
			"target":34963
		},
		{
			"buffer":0,
			"byteLength":57132,
			"byteOffset":12543220,
			"target":34962
		},
		{
			"buffer":0,
			"byteLength":57132,
			"byteOffset":12600352,
			"target":34962
		},
		{
			"buffer":0,
			"byteLength":38088,
			"byteOffset":12657484,
			"target":34962
		},
		{
			"buffer":0,
			"byteLength":13008,
			"byteOffset":12695572,
			"target":34963
		},
		{
			"buffer":0,
			"byteLength":708,
			"byteOffset":12708580,
			"target":34962
		},
		{
			"buffer":0,
			"byteLength":708,
			"byteOffset":12709288,
			"target":34962
		},
		{
			"buffer":0,
			"byteLength":472,
			"byteOffset":12709996,
			"target":34962
		},
		{
			"buffer":0,
			"byteLength":168,
			"byteOffset":12710468,
			"target":34963
		},
		{
			"buffer":0,
			"byteLength":2304,
			"byteOffset":12710636,
			"target":34962
		},
		{
			"buffer":0,
			"byteLength":2304,
			"byteOffset":12712940,
			"target":34962
		},
		{
			"buffer":0,
			"byteLength":1536,
			"byteOffset":12715244,
			"target":34962
		},
		{
			"buffer":0,
			"byteLength":1920,
			"byteOffset":12716780,
			"target":34963
		}
	],
	"samplers":[
		{
			"magFilter":9729,
			"minFilter":9987
		}
	],
	"buffers":[
		{
			"byteLength":12718700,
			"uri":"room12.bin"
		}
	]
}
