{
	"asset":{
		"generator":"Khronos glTF Blender I/O v4.1.62",
		"version":"2.0"
	},
	"scene":0,
	"scenes":[
		{
			"name":"Scene",
			"nodes":[
				10
			]
		}
	],
	"nodes":[
		{
			"name":"PgTop_04",
			"rotation":[
				0.6990615725517273,
				0.7149977684020996,
				-0.008977777324616909,
				0.0032334437128156424
			],
			"scale":[
				1,
				0.9999998211860657,
				1.0000001192092896
			],
			"translation":[
				-4.59913444519043,
				-0.1032257005572319,
				0.038262758404016495
			]
		},
		{
			"children":[
				0
			],
			"name":"PgMid_03",
			"rotation":[
				-0.9998619556427002,
				-0.013604716397821903,
				0.004082169849425554,
				0.008625001646578312
			],
			"scale":[
				1.0000003576278687,
				1,
				1
			],
			"translation":[
				2.76861572265625,
				0.014732353389263153,
				7.545411762066578e-08
			]
		},
		{
			"children":[
				1
			],
			"name":"PgBase_02",
			"rotation":[
				1.1027714331979244e-11,
				3.530131920115309e-08,
				0.7054526805877686,
				0.7087570428848267
			],
			"translation":[
				0.004426836501806974,
				0.2589624226093292,
				-3.441424922812075e-11
			]
		},
		{
			"name":"Front_06",
			"rotation":[
				7.922408740557022e-16,
				-1.723605258519001e-08,
				-3.447209451223898e-08,
				1
			],
			"translation":[
				-0.778690755367279,
				-1.543799638748169,
				-0.0018261820077896118
			]
		},
		{
			"children":[
				3
			],
			"name":"FrontBase_05",
			"rotation":[
				-3.3660345344355136e-11,
				6.143623920706887e-08,
				-5.1708163084640546e-08,
				1
			],
			"scale":[
				1,
				0.9999999403953552,
				1
			],
			"translation":[
				0.7814420461654663,
				-0.029040027409791946,
				0.001824843930080533
			]
		},
		{
			"name":"Back_08",
			"rotation":[
				-1.6076285539335516e-14,
				-1.7264804696992542e-08,
				-3.4529634262980835e-08,
				1
			],
			"scale":[
				1,
				0.9999999403953552,
				1
			],
			"translation":[
				0.7731316089630127,
				-1.5433703660964966,
				-4.6182296387087263e-07
			]
		},
		{
			"children":[
				5
			],
			"name":"BackBase_07",
			"rotation":[
				3.4562590724813384e-15,
				6.172393796077813e-08,
				-5.179445849989861e-08,
				1
			],
			"translation":[
				-0.7703801393508911,
				-0.029469871893525124,
				-6.003018029332452e-07
			]
		},
		{
			"children":[
				2,
				4,
				6
			],
			"name":"Spine_01",
			"rotation":[
				2.264032517018677e-09,
				-6.736592439438027e-08,
				-0.7071065902709961,
				0.7071069478988647
			],
			"translation":[
				0.6463869214057922,
				0.002751469612121582,
				3.116692681714994e-08
			]
		},
		{
			"children":[
				7
			],
			"name":"Root_00",
			"rotation":[
				-8.557137221032463e-09,
				2.4203238524478365e-08,
				-4.1422086936618546e-16,
				1
			],
			"translation":[
				0,
				0.9264529943466187,
				0
			]
		},
		{
			"mesh":0,
			"name":"Book_lambert6_0",
			"skin":0
		},
		{
			"children":[
				9,
				8
			],
			"name":"Skeleton"
		}
	],
	"animations":[
		{
			"channels":[
				{
					"sampler":0,
					"target":{
						"node":8,
						"path":"translation"
					}
				},
				{
					"sampler":1,
					"target":{
						"node":8,
						"path":"rotation"
					}
				},
				{
					"sampler":2,
					"target":{
						"node":8,
						"path":"scale"
					}
				},
				{
					"sampler":3,
					"target":{
						"node":7,
						"path":"translation"
					}
				},
				{
					"sampler":4,
					"target":{
						"node":7,
						"path":"rotation"
					}
				},
				{
					"sampler":5,
					"target":{
						"node":7,
						"path":"scale"
					}
				},
				{
					"sampler":6,
					"target":{
						"node":2,
						"path":"translation"
					}
				},
				{
					"sampler":7,
					"target":{
						"node":2,
						"path":"rotation"
					}
				},
				{
					"sampler":8,
					"target":{
						"node":2,
						"path":"scale"
					}
				},
				{
					"sampler":9,
					"target":{
						"node":1,
						"path":"translation"
					}
				},
				{
					"sampler":10,
					"target":{
						"node":1,
						"path":"rotation"
					}
				},
				{
					"sampler":11,
					"target":{
						"node":1,
						"path":"scale"
					}
				},
				{
					"sampler":12,
					"target":{
						"node":0,
						"path":"translation"
					}
				},
				{
					"sampler":13,
					"target":{
						"node":0,
						"path":"rotation"
					}
				},
				{
					"sampler":14,
					"target":{
						"node":0,
						"path":"scale"
					}
				},
				{
					"sampler":15,
					"target":{
						"node":4,
						"path":"translation"
					}
				},
				{
					"sampler":16,
					"target":{
						"node":4,
						"path":"rotation"
					}
				},
				{
					"sampler":17,
					"target":{
						"node":4,
						"path":"scale"
					}
				},
				{
					"sampler":18,
					"target":{
						"node":3,
						"path":"translation"
					}
				},
				{
					"sampler":19,
					"target":{
						"node":3,
						"path":"rotation"
					}
				},
				{
					"sampler":20,
					"target":{
						"node":3,
						"path":"scale"
					}
				},
				{
					"sampler":21,
					"target":{
						"node":6,
						"path":"translation"
					}
				},
				{
					"sampler":22,
					"target":{
						"node":6,
						"path":"rotation"
					}
				},
				{
					"sampler":23,
					"target":{
						"node":6,
						"path":"scale"
					}
				},
				{
					"sampler":24,
					"target":{
						"node":5,
						"path":"translation"
					}
				},
				{
					"sampler":25,
					"target":{
						"node":5,
						"path":"rotation"
					}
				},
				{
					"sampler":26,
					"target":{
						"node":5,
						"path":"scale"
					}
				}
			],
			"name":"Take 001",
			"samplers":[
				{
					"input":7,
					"interpolation":"STEP",
					"output":8
				},
				{
					"input":9,
					"interpolation":"LINEAR",
					"output":10
				},
				{
					"input":7,
					"interpolation":"STEP",
					"output":11
				},
				{
					"input":7,
					"interpolation":"LINEAR",
					"output":12
				},
				{
					"input":7,
					"interpolation":"LINEAR",
					"output":13
				},
				{
					"input":7,
					"interpolation":"STEP",
					"output":14
				},
				{
					"input":9,
					"interpolation":"LINEAR",
					"output":15
				},
				{
					"input":9,
					"interpolation":"LINEAR",
					"output":16
				},
				{
					"input":7,
					"interpolation":"LINEAR",
					"output":17
				},
				{
					"input":9,
					"interpolation":"LINEAR",
					"output":18
				},
				{
					"input":9,
					"interpolation":"LINEAR",
					"output":19
				},
				{
					"input":7,
					"interpolation":"STEP",
					"output":20
				},
				{
					"input":7,
					"interpolation":"LINEAR",
					"output":21
				},
				{
					"input":7,
					"interpolation":"LINEAR",
					"output":22
				},
				{
					"input":7,
					"interpolation":"LINEAR",
					"output":23
				},
				{
					"input":7,
					"interpolation":"LINEAR",
					"output":24
				},
				{
					"input":9,
					"interpolation":"LINEAR",
					"output":25
				},
				{
					"input":7,
					"interpolation":"STEP",
					"output":26
				},
				{
					"input":7,
					"interpolation":"LINEAR",
					"output":27
				},
				{
					"input":7,
					"interpolation":"LINEAR",
					"output":28
				},
				{
					"input":7,
					"interpolation":"STEP",
					"output":29
				},
				{
					"input":7,
					"interpolation":"LINEAR",
					"output":30
				},
				{
					"input":9,
					"interpolation":"LINEAR",
					"output":31
				},
				{
					"input":7,
					"interpolation":"STEP",
					"output":32
				},
				{
					"input":7,
					"interpolation":"STEP",
					"output":33
				},
				{
					"input":7,
					"interpolation":"LINEAR",
					"output":34
				},
				{
					"input":7,
					"interpolation":"STEP",
					"output":35
				}
			]
		}
	],
	"materials":[
		{
			"doubleSided":true,
			"name":"lambert6",
			"pbrMetallicRoughness":{
				"baseColorTexture":{
					"index":0
				},
				"metallicFactor":0
			}
		}
	],
	"meshes":[
		{
			"name":"Book_lambert6_0",
			"primitives":[
				{
					"attributes":{
						"POSITION":0,
						"NORMAL":1,
						"TEXCOORD_0":2,
						"JOINTS_0":3,
						"WEIGHTS_0":4
					},
					"indices":5,
					"material":0
				}
			]
		}
	],
	"textures":[
		{
			"sampler":0,
			"source":0
		}
	],
	"images":[
		{
			"mimeType":"image/png",
			"name":"Untitled design (5) (1)",
			"uri":"textures/Untitled%20design%205%201.png"
		}
	],
	"skins":[
		{
			"inverseBindMatrices":6,
			"joints":[
				8,
				7,
				2,
				1,
				0,
				4,
				3,
				6,
				5
			],
			"name":"Skeleton"
		}
	],
	"accessors":[
		{
			"bufferView":0,
			"componentType":5126,
			"count":956,
			"max":[
				8.18900203704834,
				8.942610740661621,
				5.738631248474121
			],
			"min":[
				-0.07833793014287949,
				-7.358076095581055,
				-4.7525506019592285
			],
			"type":"VEC3"
		},
		{
			"bufferView":1,
			"componentType":5126,
			"count":956,
			"type":"VEC3"
		},
		{
			"bufferView":2,
			"componentType":5126,
			"count":956,
			"type":"VEC2"
		},
		{
			"bufferView":3,
			"componentType":5121,
			"count":956,
			"type":"VEC4"
		},
		{
			"bufferView":4,
			"componentType":5126,
			"count":956,
			"type":"VEC4"
		},
		{
			"bufferView":5,
			"componentType":5123,
			"count":2592,
			"type":"SCALAR"
		},
		{
			"bufferView":6,
			"componentType":5126,
			"count":9,
			"type":"MAT4"
		},
		{
			"bufferView":7,
			"componentType":5126,
			"count":2,
			"max":[
				1.4166666666666667
			],
			"min":[
				0
			],
			"type":"SCALAR"
		},
		{
			"bufferView":8,
			"componentType":5126,
			"count":2,
			"type":"VEC3"
		},
		{
			"bufferView":9,
			"componentType":5126,
			"count":35,
			"max":[
				1.4166666666666667
			],
			"min":[
				0
			],
			"type":"SCALAR"
		},
		{
			"bufferView":10,
			"componentType":5126,
			"count":35,
			"type":"VEC4"
		},
		{
			"bufferView":11,
			"componentType":5126,
			"count":2,
			"type":"VEC3"
		},
		{
			"bufferView":12,
			"componentType":5126,
			"count":2,
			"type":"VEC3"
		},
		{
			"bufferView":13,
			"componentType":5126,
			"count":2,
			"type":"VEC4"
		},
		{
			"bufferView":14,
			"componentType":5126,
			"count":2,
			"type":"VEC3"
		},
		{
			"bufferView":15,
			"componentType":5126,
			"count":35,
			"type":"VEC3"
		},
		{
			"bufferView":16,
			"componentType":5126,
			"count":35,
			"type":"VEC4"
		},
		{
			"bufferView":17,
			"componentType":5126,
			"count":2,
			"type":"VEC3"
		},
		{
			"bufferView":18,
			"componentType":5126,
			"count":35,
			"type":"VEC3"
		},
		{
			"bufferView":19,
			"componentType":5126,
			"count":35,
			"type":"VEC4"
		},
		{
			"bufferView":20,
			"componentType":5126,
			"count":2,
			"type":"VEC3"
		},
		{
			"bufferView":21,
			"componentType":5126,
			"count":2,
			"type":"VEC3"
		},
		{
			"bufferView":22,
			"componentType":5126,
			"count":2,
			"type":"VEC4"
		},
		{
			"bufferView":23,
			"componentType":5126,
			"count":2,
			"type":"VEC3"
		},
		{
			"bufferView":24,
			"componentType":5126,
			"count":2,
			"type":"VEC3"
		},
		{
			"bufferView":25,
			"componentType":5126,
			"count":35,
			"type":"VEC4"
		},
		{
			"bufferView":26,
			"componentType":5126,
			"count":2,
			"type":"VEC3"
		},
		{
			"bufferView":27,
			"componentType":5126,
			"count":2,
			"type":"VEC3"
		},
		{
			"bufferView":28,
			"componentType":5126,
			"count":2,
			"type":"VEC4"
		},
		{
			"bufferView":29,
			"componentType":5126,
			"count":2,
			"type":"VEC3"
		},
		{
			"bufferView":30,
			"componentType":5126,
			"count":2,
			"type":"VEC3"
		},
		{
			"bufferView":31,
			"componentType":5126,
			"count":35,
			"type":"VEC4"
		},
		{
			"bufferView":32,
			"componentType":5126,
			"count":2,
			"type":"VEC3"
		},
		{
			"bufferView":33,
			"componentType":5126,
			"count":2,
			"type":"VEC3"
		},
		{
			"bufferView":34,
			"componentType":5126,
			"count":2,
			"type":"VEC4"
		},
		{
			"bufferView":35,
			"componentType":5126,
			"count":2,
			"type":"VEC3"
		}
	],
	"bufferViews":[
		{
			"buffer":0,
			"byteLength":11472,
			"byteOffset":0,
			"target":34962
		},
		{
			"buffer":0,
			"byteLength":11472,
			"byteOffset":11472,
			"target":34962
		},
		{
			"buffer":0,
			"byteLength":7648,
			"byteOffset":22944,
			"target":34962
		},
		{
			"buffer":0,
			"byteLength":3824,
			"byteOffset":30592,
			"target":34962
		},
		{
			"buffer":0,
			"byteLength":15296,
			"byteOffset":34416,
			"target":34962
		},
		{
			"buffer":0,
			"byteLength":5184,
			"byteOffset":49712,
			"target":34963
		},
		{
			"buffer":0,
			"byteLength":576,
			"byteOffset":54896
		},
		{
			"buffer":0,
			"byteLength":8,
			"byteOffset":55472
		},
		{
			"buffer":0,
			"byteLength":24,
			"byteOffset":55480
		},
		{
			"buffer":0,
			"byteLength":140,
			"byteOffset":55504
		},
		{
			"buffer":0,
			"byteLength":560,
			"byteOffset":55644
		},
		{
			"buffer":0,
			"byteLength":24,
			"byteOffset":56204
		},
		{
			"buffer":0,
			"byteLength":24,
			"byteOffset":56228
		},
		{
			"buffer":0,
			"byteLength":32,
			"byteOffset":56252
		},
		{
			"buffer":0,
			"byteLength":24,
			"byteOffset":56284
		},
		{
			"buffer":0,
			"byteLength":420,
			"byteOffset":56308
		},
		{
			"buffer":0,
			"byteLength":560,
			"byteOffset":56728
		},
		{
			"buffer":0,
			"byteLength":24,
			"byteOffset":57288
		},
		{
			"buffer":0,
			"byteLength":420,
			"byteOffset":57312
		},
		{
			"buffer":0,
			"byteLength":560,
			"byteOffset":57732
		},
		{
			"buffer":0,
			"byteLength":24,
			"byteOffset":58292
		},
		{
			"buffer":0,
			"byteLength":24,
			"byteOffset":58316
		},
		{
			"buffer":0,
			"byteLength":32,
			"byteOffset":58340
		},
		{
			"buffer":0,
			"byteLength":24,
			"byteOffset":58372
		},
		{
			"buffer":0,
			"byteLength":24,
			"byteOffset":58396
		},
		{
			"buffer":0,
			"byteLength":560,
			"byteOffset":58420
		},
		{
			"buffer":0,
			"byteLength":24,
			"byteOffset":58980
		},
		{
			"buffer":0,
			"byteLength":24,
			"byteOffset":59004
		},
		{
			"buffer":0,
			"byteLength":32,
			"byteOffset":59028
		},
		{
			"buffer":0,
			"byteLength":24,
			"byteOffset":59060
		},
		{
			"buffer":0,
			"byteLength":24,
			"byteOffset":59084
		},
		{
			"buffer":0,
			"byteLength":560,
			"byteOffset":59108
		},
		{
			"buffer":0,
			"byteLength":24,
			"byteOffset":59668
		},
		{
			"buffer":0,
			"byteLength":24,
			"byteOffset":59692
		},
		{
			"buffer":0,
			"byteLength":32,
			"byteOffset":59716
		},
		{
			"buffer":0,
			"byteLength":24,
			"byteOffset":59748
		}
	],
	"samplers":[
		{
			"magFilter":9729,
			"minFilter":9987
		}
	],
	"buffers":[
		{
			"byteLength":59772,
			"uri":"book.bin"
		}
	]
}
