{
	"asset":{
		"generator":"Khronos glTF Blender I/O v3.6.27",
		"version":"2.0"
	},
	"scene":0,
	"scenes":[
		{
			"name":"Scene",
			"nodes":[
				0
			]
		}
	],
	"nodes":[
		{
			"mesh":0,
			"name":"Plane.001"
		}
	],
	"materials":[
		{
			"doubleSided":true,
			"name":"Material.001",
			"pbrMetallicRoughness":{
				"baseColorTexture":{
					"index":0
				},
				"metallicFactor":0,
				"roughnessFactor":0.5
			}
		}
	],
	"meshes":[
		{
			"name":"Plane.001",
			"primitives":[
				{
					"attributes":{
						"POSITION":0,
						"NORMAL":1,
						"TEXCOORD_0":2,
						"TANGENT":3
					},
					"indices":4,
					"material":0
				}
			]
		}
	],
	"textures":[
		{
			"sampler":0,
			"source":0
		}
	],
	"images":[
		{
			"mimeType":"image/jpeg",
			"name":"5f6d572d958443ea873cf84027607981_RGB_SavannahLand_Texture_Diffuse",
			"uri":"5f6d572d958443ea873cf84027607981_RGB_SavannahLand_Texture_Diffuse.jpg"
		}
	],
	"accessors":[
		{
			"bufferView":0,
			"componentType":5126,
			"count":30720,
			"max":[
				0.3530034124851227,
				0.05302015691995621,
				0.3520941734313965
			],
			"min":[
				-0.35020267963409424,
				0,
				-0.35016945004463196
			],
			"type":"VEC3"
		},
		{
			"bufferView":1,
			"componentType":5126,
			"count":30720,
			"type":"VEC3"
		},
		{
			"bufferView":2,
			"componentType":5126,
			"count":30720,
			"type":"VEC2"
		},
		{
			"bufferView":3,
			"componentType":5126,
			"count":30720,
			"type":"VEC4"
		},
		{
			"bufferView":4,
			"componentType":5123,
			"count":61206,
			"type":"SCALAR"
		}
	],
	"bufferViews":[
		{
			"buffer":0,
			"byteLength":368640,
			"byteOffset":0,
			"target":34962
		},
		{
			"buffer":0,
			"byteLength":368640,
			"byteOffset":368640,
			"target":34962
		},
		{
			"buffer":0,
			"byteLength":245760,
			"byteOffset":737280,
			"target":34962
		},
		{
			"buffer":0,
			"byteLength":491520,
			"byteOffset":983040,
			"target":34962
		},
		{
			"buffer":0,
			"byteLength":122412,
			"byteOffset":1474560,
			"target":34963
		}
	],
	"samplers":[
		{
			"magFilter":9729,
			"minFilter":9987
		}
	],
	"buffers":[
		{
			"byteLength":1596972,
			"uri":"terrain.bin"
		}
	]
}
