{
	"asset":{
		"generator":"Khronos glTF Blender I/O v3.6.27",
		"version":"2.0"
	},
	"scene":0,
	"scenes":[
		{
			"name":"Scene",
			"nodes":[
				0
			]
		}
	],
	"nodes":[
		{
			"mesh":0,
			"name":"CavePlatform3A",
			"rotation":[
				0.7071069478988647,
				0,
				0,
				0.7071066498756409
			],
			"scale":[
				0.22638201713562012,
				0.22638200223445892,
				0.22638200223445892
			]
		}
	],
	"materials":[
		{
			"doubleSided":true,
			"name":"Material.001",
			"pbrMetallicRoughness":{
				"baseColorTexture":{
					"index":0
				},
				"metallicFactor":0,
				"roughnessFactor":0.5
			}
		}
	],
	"meshes":[
		{
			"name":"CavePlatform3A",
			"primitives":[
				{
					"attributes":{
						"POSITION":0,
						"NORMAL":1,
						"TEXCOORD_0":2
					},
					"indices":3,
					"material":0
				}
			]
		}
	],
	"textures":[
		{
			"sampler":0,
			"source":0
		}
	],
	"images":[
		{
			"mimeType":"image/png",
			"name":"CavePlatform3_Base_Diffuse",
			"uri":"CavePlatform3_Base_Diffuse.png"
		}
	],
	"accessors":[
		{
			"bufferView":0,
			"componentType":5126,
			"count":1303,
			"max":[
				22.343900680541992,
				27.038700103759766,
				10.3951997756958
			],
			"min":[
				-22.344900131225586,
				-27.038799285888672,
				-10.3951997756958
			],
			"type":"VEC3"
		},
		{
			"bufferView":1,
			"componentType":5126,
			"count":1303,
			"type":"VEC3"
		},
		{
			"bufferView":2,
			"componentType":5126,
			"count":1303,
			"type":"VEC2"
		},
		{
			"bufferView":3,
			"componentType":5123,
			"count":5508,
			"type":"SCALAR"
		}
	],
	"bufferViews":[
		{
			"buffer":0,
			"byteLength":15636,
			"byteOffset":0,
			"target":34962
		},
		{
			"buffer":0,
			"byteLength":15636,
			"byteOffset":15636,
			"target":34962
		},
		{
			"buffer":0,
			"byteLength":10424,
			"byteOffset":31272,
			"target":34962
		},
		{
			"buffer":0,
			"byteLength":11016,
			"byteOffset":41696,
			"target":34963
		}
	],
	"samplers":[
		{
			"magFilter":9729,
			"minFilter":9987
		}
	],
	"buffers":[
		{
			"byteLength":52712,
			"uri":"stone1.bin"
		}
	]
}
