{
	"asset":{
		"generator":"Khronos glTF Blender I/O v4.1.62",
		"version":"2.0"
	},
	"extensionsUsed":[
		"KHR_materials_specular",
		"KHR_materials_ior"
	],
	"scene":0,
	"scenes":[
		{
			"name":"Scene",
			"nodes":[
				0
			]
		}
	],
	"nodes":[
		{
			"mesh":0,
			"name":"Kangaroo_Baby_42213.Shape",
			"scale":[
				1.476998209953308,
				1.476998209953308,
				1.476998209953308
			],
			"translation":[
				2.5004119873046875,
				0,
				0
			]
		}
	],
	"materials":[
		{
			"doubleSided":true,
			"extensions":{
				"KHR_materials_specular":{
					"specularColorTexture":{
						"index":0
					}
				},
				"KHR_materials_ior":{
					"ior":1.4500000476837158
				}
			},
			"name":"Kangaroo_42266_eyes",
			"pbrMetallicRoughness":{
				"baseColorTexture":{
					"index":1
				},
				"metallicFactor":0
			}
		},
		{
			"doubleSided":true,
			"extensions":{
				"KHR_materials_specular":{
					"specularColorTexture":{
						"index":2
					}
				},
				"KHR_materials_ior":{
					"ior":1.4500000476837158
				}
			},
			"name":"Kangaroo_Baby_42213_teeth",
			"pbrMetallicRoughness":{
				"baseColorTexture":{
					"index":3
				},
				"metallicFactor":0
			}
		},
		{
			"doubleSided":true,
			"extensions":{
				"KHR_materials_specular":{},
				"KHR_materials_ior":{
					"ior":1.4500000476837158
				}
			},
			"name":"Kangaroo_Baby_42213_whiskers",
			"pbrMetallicRoughness":{
				"metallicFactor":0
			}
		},
		{
			"doubleSided":true,
			"extensions":{
				"KHR_materials_specular":{
					"specularColorTexture":{
						"index":4
					}
				},
				"KHR_materials_ior":{
					"ior":1.4500000476837158
				}
			},
			"name":"Kangaroo_Baby_42213_claws",
			"pbrMetallicRoughness":{
				"baseColorTexture":{
					"index":5
				},
				"metallicFactor":0
			}
		},
		{
			"doubleSided":true,
			"extensions":{
				"KHR_materials_specular":{
					"specularColorTexture":{
						"index":6
					}
				},
				"KHR_materials_ior":{
					"ior":1.4500000476837158
				}
			},
			"name":"Kangaroo_Baby_42213_body",
			"pbrMetallicRoughness":{
				"baseColorTexture":{
					"index":7
				},
				"metallicFactor":0
			}
		}
	],
	"meshes":[
		{
			"name":"Kangaroo_Baby_42213",
			"primitives":[
				{
					"attributes":{
						"POSITION":0,
						"NORMAL":1,
						"TEXCOORD_0":2
					},
					"indices":3,
					"material":0
				},
				{
					"attributes":{
						"POSITION":4,
						"NORMAL":5,
						"TEXCOORD_0":6
					},
					"indices":7,
					"material":1
				},
				{
					"attributes":{
						"POSITION":8,
						"NORMAL":9,
						"TEXCOORD_0":10
					},
					"indices":11,
					"material":2
				},
				{
					"attributes":{
						"POSITION":12,
						"NORMAL":13,
						"TEXCOORD_0":14
					},
					"indices":15,
					"material":3
				},
				{
					"attributes":{
						"POSITION":16,
						"NORMAL":17,
						"TEXCOORD_0":18
					},
					"indices":19,
					"material":4
				}
			]
		}
	],
	"textures":[
		{
			"sampler":0,
			"source":0
		},
		{
			"sampler":0,
			"source":0
		},
		{
			"sampler":0,
			"source":1
		},
		{
			"sampler":0,
			"source":1
		},
		{
			"sampler":0,
			"source":1
		},
		{
			"sampler":0,
			"source":1
		},
		{
			"sampler":0,
			"source":1
		},
		{
			"sampler":0,
			"source":1
		}
	],
	"images":[
		{
			"mimeType":"image/jpeg",
			"name":"Kangaroo_D",
			"uri":"texture/Kangaroo_D.jpg"
		},
		{
			"mimeType":"image/jpeg",
			"name":"Kangaroo_baby_D",
			"uri":"texture/Kangaroo_baby_D.jpg"
		}
	],
	"accessors":[
		{
			"bufferView":0,
			"componentType":5126,
			"count":2250,
			"max":[
				0.021965278312563896,
				0.3917948007583618,
				0.22806379199028015
			],
			"min":[
				-0.021965326741337776,
				0.38261908292770386,
				0.2186284065246582
			],
			"type":"VEC3"
		},
		{
			"bufferView":1,
			"componentType":5126,
			"count":2250,
			"type":"VEC3"
		},
		{
			"bufferView":2,
			"componentType":5126,
			"count":2250,
			"type":"VEC2"
		},
		{
			"bufferView":3,
			"componentType":5123,
			"count":13248,
			"type":"SCALAR"
		},
		{
			"bufferView":4,
			"componentType":5126,
			"count":10660,
			"max":[
				0.010392829775810242,
				0.35343137383461,
				0.25433969497680664
			],
			"min":[
				-0.010392000898718834,
				0.3466722071170807,
				0.2386179119348526
			],
			"type":"VEC3"
		},
		{
			"bufferView":5,
			"componentType":5126,
			"count":10660,
			"type":"VEC3"
		},
		{
			"bufferView":6,
			"componentType":5126,
			"count":10660,
			"type":"VEC2"
		},
		{
			"bufferView":7,
			"componentType":5123,
			"count":59760,
			"type":"SCALAR"
		},
		{
			"bufferView":8,
			"componentType":5126,
			"count":2264,
			"max":[
				0.024095339700579643,
				0.40318697690963745,
				0.26246941089630127
			],
			"min":[
				-0.024095339700579643,
				0.35051998496055603,
				0.2196056842803955
			],
			"type":"VEC3"
		},
		{
			"bufferView":9,
			"componentType":5126,
			"count":2264,
			"type":"VEC3"
		},
		{
			"bufferView":10,
			"componentType":5126,
			"count":2264,
			"type":"VEC2"
		},
		{
			"bufferView":11,
			"componentType":5123,
			"count":12480,
			"type":"SCALAR"
		},
		{
			"bufferView":12,
			"componentType":5126,
			"count":1617,
			"max":[
				0.07318858057260513,
				0.1796548068523407,
				0.2001664638519287
			],
			"min":[
				-0.07318858057260513,
				0.003847952699288726,
				0.16993850469589233
			],
			"type":"VEC3"
		},
		{
			"bufferView":13,
			"componentType":5126,
			"count":1617,
			"type":"VEC3"
		},
		{
			"bufferView":14,
			"componentType":5126,
			"count":1617,
			"type":"VEC2"
		},
		{
			"bufferView":15,
			"componentType":5123,
			"count":8340,
			"type":"SCALAR"
		},
		{
			"bufferView":16,
			"componentType":5126,
			"count":26642,
			"max":[
				0.07404322922229767,
				0.45903128385543823,
				0.26857271790504456
			],
			"min":[
				-0.07404322922229767,
				-0.0006428984343074262,
				-0.3874739706516266
			],
			"type":"VEC3"
		},
		{
			"bufferView":17,
			"componentType":5126,
			"count":26642,
			"type":"VEC3"
		},
		{
			"bufferView":18,
			"componentType":5126,
			"count":26642,
			"type":"VEC2"
		},
		{
			"bufferView":19,
			"componentType":5123,
			"count":154686,
			"type":"SCALAR"
		}
	],
	"bufferViews":[
		{
			"buffer":0,
			"byteLength":27000,
			"byteOffset":0,
			"target":34962
		},
		{
			"buffer":0,
			"byteLength":27000,
			"byteOffset":27000,
			"target":34962
		},
		{
			"buffer":0,
			"byteLength":18000,
			"byteOffset":54000,
			"target":34962
		},
		{
			"buffer":0,
			"byteLength":26496,
			"byteOffset":72000,
			"target":34963
		},
		{
			"buffer":0,
			"byteLength":127920,
			"byteOffset":98496,
			"target":34962
		},
		{
			"buffer":0,
			"byteLength":127920,
			"byteOffset":226416,
			"target":34962
		},
		{
			"buffer":0,
			"byteLength":85280,
			"byteOffset":354336,
			"target":34962
		},
		{
			"buffer":0,
			"byteLength":119520,
			"byteOffset":439616,
			"target":34963
		},
		{
			"buffer":0,
			"byteLength":27168,
			"byteOffset":559136,
			"target":34962
		},
		{
			"buffer":0,
			"byteLength":27168,
			"byteOffset":586304,
			"target":34962
		},
		{
			"buffer":0,
			"byteLength":18112,
			"byteOffset":613472,
			"target":34962
		},
		{
			"buffer":0,
			"byteLength":24960,
			"byteOffset":631584,
			"target":34963
		},
		{
			"buffer":0,
			"byteLength":19404,
			"byteOffset":656544,
			"target":34962
		},
		{
			"buffer":0,
			"byteLength":19404,
			"byteOffset":675948,
			"target":34962
		},
		{
			"buffer":0,
			"byteLength":12936,
			"byteOffset":695352,
			"target":34962
		},
		{
			"buffer":0,
			"byteLength":16680,
			"byteOffset":708288,
			"target":34963
		},
		{
			"buffer":0,
			"byteLength":319704,
			"byteOffset":724968,
			"target":34962
		},
		{
			"buffer":0,
			"byteLength":319704,
			"byteOffset":1044672,
			"target":34962
		},
		{
			"buffer":0,
			"byteLength":213136,
			"byteOffset":1364376,
			"target":34962
		},
		{
			"buffer":0,
			"byteLength":309372,
			"byteOffset":1577512,
			"target":34963
		}
	],
	"samplers":[
		{
			"magFilter":9729,
			"minFilter":9987
		}
	],
	"buffers":[
		{
			"byteLength":1886884,
			"uri":"kangarooJoey.bin"
		}
	]
}
