{
	"asset":{
		"generator":"Khronos glTF Blender I/O v4.1.62",
		"version":"2.0"
	},
	"extensionsUsed":[
		"KHR_materials_unlit"
	],
	"scene":0,
	"scenes":[
		{
			"name":"Scene",
			"nodes":[
				0
			]
		}
	],
	"nodes":[
		{
			"mesh":0,
			"name":"--5_53226.Shape.001"
		}
	],
	"materials":[
		{
			"doubleSided":true,
			"extensions":{
				"KHR_materials_unlit":{}
			},
			"name":"Male_Arms",
			"pbrMetallicRoughness":{
				"baseColorTexture":{
					"index":0
				},
				"metallicFactor":0,
				"roughnessFactor":0.9
			}
		},
		{
			"alphaMode":"BLEND",
			"doubleSided":true,
			"extensions":{
				"KHR_materials_unlit":{}
			},
			"name":"SARGAY--5_53226_Bangs-Hair1",
			"pbrMetallicRoughness":{
				"baseColorTexture":{
					"index":1
				},
				"metallicFactor":0,
				"roughnessFactor":0.9
			}
		},
		{
			"doubleSided":true,
			"extensions":{
				"KHR_materials_unlit":{}
			},
			"name":"Jeans_10073_MainPants",
			"pbrMetallicRoughness":{
				"baseColorTexture":{
					"index":2
				},
				"metallicFactor":0,
				"roughnessFactor":0.9
			}
		},
		{
			"doubleSided":true,
			"extensions":{
				"KHR_materials_unlit":{}
			},
			"name":"Shirt_16384_MainShirt",
			"pbrMetallicRoughness":{
				"baseColorTexture":{
					"index":3
				},
				"metallicFactor":0,
				"roughnessFactor":0.9
			}
		},
		{
			"doubleSided":true,
			"extensions":{
				"KHR_materials_unlit":{}
			},
			"name":"Male_Face",
			"pbrMetallicRoughness":{
				"baseColorTexture":{
					"index":4
				},
				"metallicFactor":0,
				"roughnessFactor":0.9
			}
		},
		{
			"doubleSided":true,
			"extensions":{
				"KHR_materials_unlit":{}
			},
			"name":"Male_Torso",
			"pbrMetallicRoughness":{
				"baseColorTexture":{
					"index":5
				},
				"metallicFactor":0,
				"roughnessFactor":0.9
			}
		},
		{
			"doubleSided":true,
			"extensions":{
				"KHR_materials_unlit":{}
			},
			"name":"Male_Legs",
			"pbrMetallicRoughness":{
				"baseColorTexture":{
					"index":6
				},
				"metallicFactor":0,
				"roughnessFactor":0.9
			}
		},
		{
			"doubleSided":true,
			"name":"blanket",
			"pbrMetallicRoughness":{
				"baseColorTexture":{
					"index":7
				},
				"metallicFactor":0,
				"roughnessFactor":0.5
			}
		}
	],
	"meshes":[
		{
			"name":"SARGAY-g8M-5_53226.001",
			"primitives":[
				{
					"attributes":{
						"POSITION":0,
						"NORMAL":1,
						"TEXCOORD_0":2
					},
					"indices":3,
					"material":0
				},
				{
					"attributes":{
						"POSITION":4,
						"NORMAL":5,
						"TEXCOORD_0":6
					},
					"indices":7,
					"material":1
				},
				{
					"attributes":{
						"POSITION":8,
						"NORMAL":9,
						"TEXCOORD_0":10
					},
					"indices":11,
					"material":2
				},
				{
					"attributes":{
						"POSITION":12,
						"NORMAL":13,
						"TEXCOORD_0":14
					},
					"indices":15,
					"material":3
				},
				{
					"attributes":{
						"POSITION":16,
						"NORMAL":17,
						"TEXCOORD_0":18
					},
					"indices":19,
					"material":4
				},
				{
					"attributes":{
						"POSITION":20,
						"NORMAL":21,
						"TEXCOORD_0":22
					},
					"indices":23,
					"material":5
				},
				{
					"attributes":{
						"POSITION":24,
						"NORMAL":25,
						"TEXCOORD_0":26
					},
					"indices":27,
					"material":6
				},
				{
					"attributes":{
						"POSITION":28,
						"NORMAL":29,
						"TEXCOORD_0":30
					},
					"indices":31,
					"material":7
				}
			]
		}
	],
	"textures":[
		{
			"sampler":0,
			"source":0
		},
		{
			"sampler":0,
			"source":1
		},
		{
			"sampler":0,
			"source":2
		},
		{
			"sampler":0,
			"source":3
		},
		{
			"sampler":0,
			"source":4
		},
		{
			"sampler":0,
			"source":5
		},
		{
			"sampler":0,
			"source":6
		},
		{
			"sampler":0,
			"source":7
		}
	],
	"images":[
		{
			"mimeType":"image/jpeg",
			"name":"DevanshArms_1004",
			"uri":"textures/DevanshArms_1004.jpg"
		},
		{
			"mimeType":"image/png",
			"name":"d2_New Layered Image 23",
			"uri":"textures/d2_New%20Layered%20Image%2023.png"
		},
		{
			"mimeType":"image/jpeg",
			"name":"1001_Base_Color",
			"uri":"textures/1001_Base_Color.jpg"
		},
		{
			"mimeType":"image/jpeg",
			"name":"1001_Base_Color-1",
			"uri":"textures/1001_Base_Color-1.jpg"
		},
		{
			"mimeType":"image/jpeg",
			"name":"DevanshFace_1001",
			"uri":"textures/DevanshFace_1001.jpg"
		},
		{
			"mimeType":"image/jpeg",
			"name":"DevanshTorso_1002",
			"uri":"textures/DevanshTorso_1002.jpg"
		},
		{
			"mimeType":"image/jpeg",
			"name":"DevanshLegs_1003",
			"uri":"textures/DevanshLegs_1003.jpg"
		},
		{
			"mimeType":"image/jpeg",
			"name":"3bee7dbe60e0491d8b3954e94f6672e8_RGB_54f5b86dbf18a5bdc35b36efa71fd9e3",
			"uri":"textures/3bee7dbe60e0491d8b3954e94f6672e8_RGB_54f5b86dbf18a5bdc35b36efa71fd9e3.jpg"
		}
	],
	"accessors":[
		{
			"bufferView":0,
			"componentType":5126,
			"count":3060,
			"max":[
				0.15489068627357483,
				0.15016359090805054,
				0.22593587636947632
			],
			"min":[
				-0.1723875105381012,
				-0.1866120547056198,
				-0.11629084497690201
			],
			"type":"VEC3"
		},
		{
			"bufferView":1,
			"componentType":5126,
			"count":3060,
			"type":"VEC3"
		},
		{
			"bufferView":2,
			"componentType":5126,
			"count":3060,
			"type":"VEC2"
		},
		{
			"bufferView":3,
			"componentType":5123,
			"count":16323,
			"type":"SCALAR"
		},
		{
			"bufferView":4,
			"componentType":5126,
			"count":26072,
			"max":[
				0.18729427456855774,
				0.10094577819108963,
				-0.047684360295534134
			],
			"min":[
				-0.05339619144797325,
				-0.08463015407323837,
				-0.2316858321428299
			],
			"type":"VEC3"
		},
		{
			"bufferView":5,
			"componentType":5126,
			"count":26072,
			"type":"VEC3"
		},
		{
			"bufferView":6,
			"componentType":5126,
			"count":26072,
			"type":"VEC2"
		},
		{
			"bufferView":7,
			"componentType":5123,
			"count":75084,
			"type":"SCALAR"
		},
		{
			"bufferView":8,
			"componentType":5126,
			"count":1247,
			"max":[
				-0.055730875581502914,
				0.11016076803207397,
				0.955536961555481
			],
			"min":[
				-0.5247635245323181,
				-0.14296796917915344,
				0.2341693788766861
			],
			"type":"VEC3"
		},
		{
			"bufferView":9,
			"componentType":5126,
			"count":1247,
			"type":"VEC3"
		},
		{
			"bufferView":10,
			"componentType":5126,
			"count":1247,
			"type":"VEC2"
		},
		{
			"bufferView":11,
			"componentType":5123,
			"count":5907,
			"type":"SCALAR"
		},
		{
			"bufferView":12,
			"componentType":5126,
			"count":1302,
			"max":[
				0.11020031571388245,
				0.16082923114299774,
				0.4141469895839691
			],
			"min":[
				-0.4435328543186188,
				-0.20567704737186432,
				-0.07028339058160782
			],
			"type":"VEC3"
		},
		{
			"bufferView":13,
			"componentType":5126,
			"count":1302,
			"type":"VEC3"
		},
		{
			"bufferView":14,
			"componentType":5126,
			"count":1302,
			"type":"VEC2"
		},
		{
			"bufferView":15,
			"componentType":5123,
			"count":6831,
			"type":"SCALAR"
		},
		{
			"bufferView":16,
			"componentType":5126,
			"count":1602,
			"max":[
				0.1581716239452362,
				0.09060550481081009,
				0.027406739071011543
			],
			"min":[
				0.008125041611492634,
				-0.07024828344583511,
				-0.17309904098510742
			],
			"type":"VEC3"
		},
		{
			"bufferView":17,
			"componentType":5126,
			"count":1602,
			"type":"VEC3"
		},
		{
			"bufferView":18,
			"componentType":5126,
			"count":1602,
			"type":"VEC2"
		},
		{
			"bufferView":19,
			"componentType":5123,
			"count":8913,
			"type":"SCALAR"
		},
		{
			"bufferView":20,
			"componentType":5126,
			"count":2769,
			"max":[
				0.1323864758014679,
				0.15468119084835052,
				0.5048357844352722
			],
			"min":[
				-0.4343014657497406,
				-0.15131182968616486,
				-0.2151436060667038
			],
			"type":"VEC3"
		},
		{
			"bufferView":21,
			"componentType":5126,
			"count":2769,
			"type":"VEC3"
		},
		{
			"bufferView":22,
			"componentType":5126,
			"count":2769,
			"type":"VEC2"
		},
		{
			"bufferView":23,
			"componentType":5123,
			"count":15471,
			"type":"SCALAR"
		},
		{
			"bufferView":24,
			"componentType":5126,
			"count":3040,
			"max":[
				-0.06125965341925621,
				0.07204899936914444,
				1.07537841796875
			],
			"min":[
				-0.5845775604248047,
				-0.13080841302871704,
				0.37829354405403137
			],
			"type":"VEC3"
		},
		{
			"bufferView":25,
			"componentType":5126,
			"count":3040,
			"type":"VEC3"
		},
		{
			"bufferView":26,
			"componentType":5126,
			"count":3040,
			"type":"VEC2"
		},
		{
			"bufferView":27,
			"componentType":5123,
			"count":16377,
			"type":"SCALAR"
		},
		{
			"bufferView":28,
			"componentType":5126,
			"count":561,
			"max":[
				0.26462751626968384,
				0.17513138055801392,
				1.075179934501648
			],
			"min":[
				-0.5733643174171448,
				-0.0933302715420723,
				-0.006298411171883345
			],
			"type":"VEC3"
		},
		{
			"bufferView":29,
			"componentType":5126,
			"count":561,
			"type":"VEC3"
		},
		{
			"bufferView":30,
			"componentType":5126,
			"count":561,
			"type":"VEC2"
		},
		{
			"bufferView":31,
			"componentType":5123,
			"count":3072,
			"type":"SCALAR"
		}
	],
	"bufferViews":[
		{
			"buffer":0,
			"byteLength":36720,
			"byteOffset":0,
			"target":34962
		},
		{
			"buffer":0,
			"byteLength":36720,
			"byteOffset":36720,
			"target":34962
		},
		{
			"buffer":0,
			"byteLength":24480,
			"byteOffset":73440,
			"target":34962
		},
		{
			"buffer":0,
			"byteLength":32646,
			"byteOffset":97920,
			"target":34963
		},
		{
			"buffer":0,
			"byteLength":312864,
			"byteOffset":130568,
			"target":34962
		},
		{
			"buffer":0,
			"byteLength":312864,
			"byteOffset":443432,
			"target":34962
		},
		{
			"buffer":0,
			"byteLength":208576,
			"byteOffset":756296,
			"target":34962
		},
		{
			"buffer":0,
			"byteLength":150168,
			"byteOffset":964872,
			"target":34963
		},
		{
			"buffer":0,
			"byteLength":14964,
			"byteOffset":1115040,
			"target":34962
		},
		{
			"buffer":0,
			"byteLength":14964,
			"byteOffset":1130004,
			"target":34962
		},
		{
			"buffer":0,
			"byteLength":9976,
			"byteOffset":1144968,
			"target":34962
		},
		{
			"buffer":0,
			"byteLength":11814,
			"byteOffset":1154944,
			"target":34963
		},
		{
			"buffer":0,
			"byteLength":15624,
			"byteOffset":1166760,
			"target":34962
		},
		{
			"buffer":0,
			"byteLength":15624,
			"byteOffset":1182384,
			"target":34962
		},
		{
			"buffer":0,
			"byteLength":10416,
			"byteOffset":1198008,
			"target":34962
		},
		{
			"buffer":0,
			"byteLength":13662,
			"byteOffset":1208424,
			"target":34963
		},
		{
			"buffer":0,
			"byteLength":19224,
			"byteOffset":1222088,
			"target":34962
		},
		{
			"buffer":0,
			"byteLength":19224,
			"byteOffset":1241312,
			"target":34962
		},
		{
			"buffer":0,
			"byteLength":12816,
			"byteOffset":1260536,
			"target":34962
		},
		{
			"buffer":0,
			"byteLength":17826,
			"byteOffset":1273352,
			"target":34963
		},
		{
			"buffer":0,
			"byteLength":33228,
			"byteOffset":1291180,
			"target":34962
		},
		{
			"buffer":0,
			"byteLength":33228,
			"byteOffset":1324408,
			"target":34962
		},
		{
			"buffer":0,
			"byteLength":22152,
			"byteOffset":1357636,
			"target":34962
		},
		{
			"buffer":0,
			"byteLength":30942,
			"byteOffset":1379788,
			"target":34963
		},
		{
			"buffer":0,
			"byteLength":36480,
			"byteOffset":1410732,
			"target":34962
		},
		{
			"buffer":0,
			"byteLength":36480,
			"byteOffset":1447212,
			"target":34962
		},
		{
			"buffer":0,
			"byteLength":24320,
			"byteOffset":1483692,
			"target":34962
		},
		{
			"buffer":0,
			"byteLength":32754,
			"byteOffset":1508012,
			"target":34963
		},
		{
			"buffer":0,
			"byteLength":6732,
			"byteOffset":1540768,
			"target":34962
		},
		{
			"buffer":0,
			"byteLength":6732,
			"byteOffset":1547500,
			"target":34962
		},
		{
			"buffer":0,
			"byteLength":4488,
			"byteOffset":1554232,
			"target":34962
		},
		{
			"buffer":0,
			"byteLength":6144,
			"byteOffset":1558720,
			"target":34963
		}
	],
	"samplers":[
		{
			"magFilter":9729,
			"minFilter":9987
		}
	],
	"buffers":[
		{
			"byteLength":1564864,
			"uri":"cwb.bin"
		}
	]
}
