{
	"asset":{
		"generator":"Khronos glTF Blender I/O v4.1.62",
		"version":"2.0"
	},
	"extensionsUsed":[
		"KHR_materials_specular",
		"KHR_materials_ior"
	],
	"scene":0,
	"scenes":[
		{
			"name":"Scene",
			"nodes":[
				0
			]
		}
	],
	"nodes":[
		{
			"mesh":0,
			"name":"IndianElephantBaby.Shape",
			"scale":[
				1.5789803266525269,
				1.5789803266525269,
				1.5789803266525269
			],
			"translation":[
				2.508388042449951,
				0,
				0
			]
		}
	],
	"materials":[
		{
			"doubleSided":true,
			"extensions":{
				"KHR_materials_specular":{
					"specularColorTexture":{
						"index":0
					}
				},
				"KHR_materials_ior":{
					"ior":1.4500000476837158
				}
			},
			"name":"IndianElephantBaby_eyes",
			"pbrMetallicRoughness":{
				"baseColorTexture":{
					"index":1
				},
				"metallicFactor":0
			}
		},
		{
			"doubleSided":true,
			"extensions":{
				"KHR_materials_specular":{
					"specularColorTexture":{
						"index":2
					}
				},
				"KHR_materials_ior":{
					"ior":1.4500000476837158
				}
			},
			"name":"IndianElephantBaby_nails",
			"pbrMetallicRoughness":{
				"baseColorTexture":{
					"index":3
				},
				"metallicFactor":0
			}
		},
		{
			"doubleSided":true,
			"extensions":{
				"KHR_materials_specular":{
					"specularColorTexture":{
						"index":4
					}
				},
				"KHR_materials_ior":{
					"ior":1.4500000476837158
				}
			},
			"name":"IndianElephantBaby_lowerTeeth",
			"pbrMetallicRoughness":{
				"baseColorTexture":{
					"index":5
				},
				"metallicFactor":0
			}
		},
		{
			"doubleSided":true,
			"extensions":{
				"KHR_materials_specular":{
					"specularColorTexture":{
						"index":6
					}
				},
				"KHR_materials_ior":{
					"ior":1.4500000476837158
				}
			},
			"name":"IndianElephantBaby_tongue",
			"pbrMetallicRoughness":{
				"baseColorTexture":{
					"index":7
				},
				"metallicFactor":0
			}
		},
		{
			"doubleSided":true,
			"extensions":{
				"KHR_materials_specular":{
					"specularColorTexture":{
						"index":8
					}
				},
				"KHR_materials_ior":{
					"ior":1.4500000476837158
				}
			},
			"name":"IndianElephantBaby_mouth",
			"pbrMetallicRoughness":{
				"baseColorTexture":{
					"index":9
				},
				"metallicFactor":0
			}
		},
		{
			"doubleSided":true,
			"extensions":{
				"KHR_materials_specular":{
					"specularColorTexture":{
						"index":10
					}
				},
				"KHR_materials_ior":{
					"ior":1.4500000476837158
				}
			},
			"name":"IndianElephantBaby_uppertTeeth",
			"pbrMetallicRoughness":{
				"baseColorTexture":{
					"index":11
				},
				"metallicFactor":0
			}
		},
		{
			"doubleSided":true,
			"extensions":{
				"KHR_materials_specular":{
					"specularColorTexture":{
						"index":12
					}
				},
				"KHR_materials_ior":{
					"ior":1.4500000476837158
				}
			},
			"name":"IndianElephantBaby_body",
			"pbrMetallicRoughness":{
				"baseColorTexture":{
					"index":13
				},
				"metallicFactor":0
			}
		}
	],
	"meshes":[
		{
			"name":"IndianElephantBaby",
			"primitives":[
				{
					"attributes":{
						"POSITION":0,
						"NORMAL":1,
						"TEXCOORD_0":2
					},
					"indices":3,
					"material":0
				},
				{
					"attributes":{
						"POSITION":4,
						"NORMAL":5,
						"TEXCOORD_0":6
					},
					"indices":7,
					"material":1
				},
				{
					"attributes":{
						"POSITION":8,
						"NORMAL":9,
						"TEXCOORD_0":10
					},
					"indices":11,
					"material":2
				},
				{
					"attributes":{
						"POSITION":12,
						"NORMAL":13,
						"TEXCOORD_0":14
					},
					"indices":15,
					"material":3
				},
				{
					"attributes":{
						"POSITION":16,
						"NORMAL":17,
						"TEXCOORD_0":18
					},
					"indices":19,
					"material":4
				},
				{
					"attributes":{
						"POSITION":20,
						"NORMAL":21,
						"TEXCOORD_0":22
					},
					"indices":23,
					"material":5
				},
				{
					"attributes":{
						"POSITION":24,
						"NORMAL":25,
						"TEXCOORD_0":26
					},
					"indices":27,
					"material":6
				}
			]
		}
	],
	"textures":[
		{
			"sampler":0,
			"source":0
		},
		{
			"sampler":0,
			"source":0
		},
		{
			"sampler":0,
			"source":1
		},
		{
			"sampler":0,
			"source":1
		},
		{
			"sampler":0,
			"source":2
		},
		{
			"sampler":0,
			"source":2
		},
		{
			"sampler":0,
			"source":3
		},
		{
			"sampler":0,
			"source":3
		},
		{
			"sampler":0,
			"source":3
		},
		{
			"sampler":0,
			"source":3
		},
		{
			"sampler":0,
			"source":4
		},
		{
			"sampler":0,
			"source":4
		},
		{
			"sampler":0,
			"source":3
		},
		{
			"sampler":0,
			"source":3
		}
	],
	"images":[
		{
			"mimeType":"image/jpeg",
			"name":"IndianElephantBaby_Eyes_D",
			"uri":"textures/IndianElephantBaby_Eyes_D.jpg"
		},
		{
			"mimeType":"image/jpeg",
			"name":"IndianElephantBaby_Nails_D",
			"uri":"textures/IndianElephantBaby_Nails_D.jpg"
		},
		{
			"mimeType":"image/jpeg",
			"name":"IndianElephantBaby_LowerTeeth_D",
			"uri":"textures/IndianElephantBaby_LowerTeeth_D.jpg"
		},
		{
			"mimeType":"image/jpeg",
			"name":"IndianElephantBaby_Body_D",
			"uri":"textures/IndianElephantBaby_Body_D.jpg"
		},
		{
			"mimeType":"image/jpeg",
			"name":"IndianElephantBaby_UpperTeeth_D",
			"uri":"textures/IndianElephantBaby_UpperTeeth_D.jpg"
		}
	],
	"accessors":[
		{
			"bufferView":0,
			"componentType":5126,
			"count":5844,
			"max":[
				0.11856499314308167,
				0.6421327590942383,
				1.077720046043396
			],
			"min":[
				-0.11856900155544281,
				0.6029989719390869,
				1.038349986076355
			],
			"type":"VEC3"
		},
		{
			"bufferView":1,
			"componentType":5126,
			"count":5844,
			"type":"VEC3"
		},
		{
			"bufferView":2,
			"componentType":5126,
			"count":5844,
			"type":"VEC2"
		},
		{
			"bufferView":3,
			"componentType":5123,
			"count":34176,
			"type":"SCALAR"
		},
		{
			"bufferView":4,
			"componentType":5126,
			"count":18254,
			"max":[
				0.25004100799560547,
				0.04278498515486717,
				0.7250538468360901
			],
			"min":[
				-0.25008299946784973,
				0.004151102155447006,
				-0.0006997839664109051
			],
			"type":"VEC3"
		},
		{
			"bufferView":5,
			"componentType":5126,
			"count":18254,
			"type":"VEC3"
		},
		{
			"bufferView":6,
			"componentType":5126,
			"count":18254,
			"type":"VEC2"
		},
		{
			"bufferView":7,
			"componentType":5123,
			"count":107136,
			"type":"SCALAR"
		},
		{
			"bufferView":8,
			"componentType":5126,
			"count":58997,
			"max":[
				0.05050859972834587,
				0.5398440361022949,
				0.9898919463157654
			],
			"min":[
				-0.050684697926044464,
				0.4804299473762512,
				0.9085949659347534
			],
			"type":"VEC3"
		},
		{
			"bufferView":9,
			"componentType":5126,
			"count":58997,
			"type":"VEC3"
		},
		{
			"bufferView":10,
			"componentType":5126,
			"count":58997,
			"type":"VEC2"
		},
		{
			"bufferView":11,
			"componentType":5123,
			"count":120624,
			"type":"SCALAR"
		},
		{
			"bufferView":12,
			"componentType":5126,
			"count":247,
			"max":[
				0.030794596299529076,
				0.5340489745140076,
				1.0628899335861206
			],
			"min":[
				-0.03077380172908306,
				0.43971094489097595,
				0.9395149946212769
			],
			"type":"VEC3"
		},
		{
			"bufferView":13,
			"componentType":5126,
			"count":247,
			"type":"VEC3"
		},
		{
			"bufferView":14,
			"componentType":5126,
			"count":247,
			"type":"VEC2"
		},
		{
			"bufferView":15,
			"componentType":5123,
			"count":1344,
			"type":"SCALAR"
		},
		{
			"bufferView":16,
			"componentType":5126,
			"count":838,
			"max":[
				0.05299369618296623,
				0.5819489359855652,
				1.0798799991607666
			],
			"min":[
				-0.052953898906707764,
				0.4290841519832611,
				0.8461440205574036
			],
			"type":"VEC3"
		},
		{
			"bufferView":17,
			"componentType":5126,
			"count":838,
			"type":"VEC3"
		},
		{
			"bufferView":18,
			"componentType":5126,
			"count":838,
			"type":"VEC2"
		},
		{
			"bufferView":19,
			"componentType":5123,
			"count":4674,
			"type":"SCALAR"
		},
		{
			"bufferView":20,
			"componentType":5126,
			"count":20420,
			"max":[
				0.04351399838924408,
				0.5641009211540222,
				1.0107299089431763
			],
			"min":[
				-0.04355959966778755,
				0.5114968419075012,
				0.9265488982200623
			],
			"type":"VEC3"
		},
		{
			"bufferView":21,
			"componentType":5126,
			"count":20420,
			"type":"VEC3"
		},
		{
			"bufferView":22,
			"componentType":5126,
			"count":20420,
			"type":"VEC2"
		},
		{
			"bufferView":23,
			"componentType":5123,
			"count":120624,
			"type":"SCALAR"
		},
		{
			"bufferView":24,
			"componentType":5126,
			"count":22732,
			"max":[
				0.2878955006599426,
				0.957859992980957,
				1.1788499355316162
			],
			"min":[
				-0.28818279504776,
				-0.0014071607729420066,
				-0.17920897901058197
			],
			"type":"VEC3"
		},
		{
			"bufferView":25,
			"componentType":5126,
			"count":22732,
			"type":"VEC3"
		},
		{
			"bufferView":26,
			"componentType":5126,
			"count":22732,
			"type":"VEC2"
		},
		{
			"bufferView":27,
			"componentType":5123,
			"count":131592,
			"type":"SCALAR"
		}
	],
	"bufferViews":[
		{
			"buffer":0,
			"byteLength":70128,
			"byteOffset":0,
			"target":34962
		},
		{
			"buffer":0,
			"byteLength":70128,
			"byteOffset":70128,
			"target":34962
		},
		{
			"buffer":0,
			"byteLength":46752,
			"byteOffset":140256,
			"target":34962
		},
		{
			"buffer":0,
			"byteLength":68352,
			"byteOffset":187008,
			"target":34963
		},
		{
			"buffer":0,
			"byteLength":219048,
			"byteOffset":255360,
			"target":34962
		},
		{
			"buffer":0,
			"byteLength":219048,
			"byteOffset":474408,
			"target":34962
		},
		{
			"buffer":0,
			"byteLength":146032,
			"byteOffset":693456,
			"target":34962
		},
		{
			"buffer":0,
			"byteLength":214272,
			"byteOffset":839488,
			"target":34963
		},
		{
			"buffer":0,
			"byteLength":707964,
			"byteOffset":1053760,
			"target":34962
		},
		{
			"buffer":0,
			"byteLength":707964,
			"byteOffset":1761724,
			"target":34962
		},
		{
			"buffer":0,
			"byteLength":471976,
			"byteOffset":2469688,
			"target":34962
		},
		{
			"buffer":0,
			"byteLength":241248,
			"byteOffset":2941664,
			"target":34963
		},
		{
			"buffer":0,
			"byteLength":2964,
			"byteOffset":3182912,
			"target":34962
		},
		{
			"buffer":0,
			"byteLength":2964,
			"byteOffset":3185876,
			"target":34962
		},
		{
			"buffer":0,
			"byteLength":1976,
			"byteOffset":3188840,
			"target":34962
		},
		{
			"buffer":0,
			"byteLength":2688,
			"byteOffset":3190816,
			"target":34963
		},
		{
			"buffer":0,
			"byteLength":10056,
			"byteOffset":3193504,
			"target":34962
		},
		{
			"buffer":0,
			"byteLength":10056,
			"byteOffset":3203560,
			"target":34962
		},
		{
			"buffer":0,
			"byteLength":6704,
			"byteOffset":3213616,
			"target":34962
		},
		{
			"buffer":0,
			"byteLength":9348,
			"byteOffset":3220320,
			"target":34963
		},
		{
			"buffer":0,
			"byteLength":245040,
			"byteOffset":3229668,
			"target":34962
		},
		{
			"buffer":0,
			"byteLength":245040,
			"byteOffset":3474708,
			"target":34962
		},
		{
			"buffer":0,
			"byteLength":163360,
			"byteOffset":3719748,
			"target":34962
		},
		{
			"buffer":0,
			"byteLength":241248,
			"byteOffset":3883108,
			"target":34963
		},
		{
			"buffer":0,
			"byteLength":272784,
			"byteOffset":4124356,
			"target":34962
		},
		{
			"buffer":0,
			"byteLength":272784,
			"byteOffset":4397140,
			"target":34962
		},
		{
			"buffer":0,
			"byteLength":181856,
			"byteOffset":4669924,
			"target":34962
		},
		{
			"buffer":0,
			"byteLength":263184,
			"byteOffset":4851780,
			"target":34963
		}
	],
	"samplers":[
		{
			"magFilter":9729,
			"minFilter":9987
		}
	],
	"buffers":[
		{
			"byteLength":5114964,
			"uri":"cub.bin"
		}
	]
}
