{
	"asset":{
		"generator":"Khronos glTF Blender I/O v4.1.62",
		"version":"2.0"
	},
	"extensionsUsed":[
		"KHR_materials_specular",
		"KHR_materials_ior"
	],
	"scene":0,
	"scenes":[
		{
			"name":"Scene",
			"nodes":[
				0
			]
		}
	],
	"nodes":[
		{
			"mesh":0,
			"name":"Indian Elephant.Shape"
		}
	],
	"materials":[
		{
			"doubleSided":true,
			"extensions":{
				"KHR_materials_specular":{
					"specularColorTexture":{
						"index":0
					}
				},
				"KHR_materials_ior":{
					"ior":1.4500000476837158
				}
			},
			"name":"Indian Elephant_upperTeeth",
			"pbrMetallicRoughness":{
				"baseColorTexture":{
					"index":1
				},
				"metallicFactor":0
			}
		},
		{
			"doubleSided":true,
			"extensions":{
				"KHR_materials_specular":{
					"specularColorTexture":{
						"index":2
					}
				},
				"KHR_materials_ior":{
					"ior":1.4500000476837158
				}
			},
			"name":"Indian Elephant_body",
			"pbrMetallicRoughness":{
				"baseColorTexture":{
					"index":3
				},
				"metallicFactor":0
			}
		},
		{
			"doubleSided":true,
			"extensions":{
				"KHR_materials_specular":{
					"specularColorTexture":{
						"index":4
					}
				},
				"KHR_materials_ior":{
					"ior":1.4500000476837158
				}
			},
			"name":"Indian Elephant_nails",
			"pbrMetallicRoughness":{
				"baseColorTexture":{
					"index":5
				},
				"metallicFactor":0
			}
		},
		{
			"doubleSided":true,
			"extensions":{
				"KHR_materials_specular":{
					"specularColorTexture":{
						"index":6
					}
				},
				"KHR_materials_ior":{
					"ior":1.4500000476837158
				}
			},
			"name":"Indian Elephant_lowerTeeth",
			"pbrMetallicRoughness":{
				"baseColorTexture":{
					"index":7
				},
				"metallicFactor":0
			}
		},
		{
			"doubleSided":true,
			"extensions":{
				"KHR_materials_specular":{
					"specularColorTexture":{
						"index":8
					}
				},
				"KHR_materials_ior":{
					"ior":1.4500000476837158
				}
			},
			"name":"Indian Elephant_tongue",
			"pbrMetallicRoughness":{
				"baseColorTexture":{
					"index":9
				},
				"metallicFactor":0
			}
		},
		{
			"doubleSided":true,
			"extensions":{
				"KHR_materials_specular":{
					"specularColorTexture":{
						"index":10
					}
				},
				"KHR_materials_ior":{
					"ior":1.4500000476837158
				}
			},
			"name":"Indian Elephant_tusks",
			"pbrMetallicRoughness":{
				"baseColorTexture":{
					"index":11
				},
				"metallicFactor":0
			}
		},
		{
			"doubleSided":true,
			"extensions":{
				"KHR_materials_specular":{
					"specularColorTexture":{
						"index":12
					}
				},
				"KHR_materials_ior":{
					"ior":1.4500000476837158
				}
			},
			"name":"Indian Elephant_mouth",
			"pbrMetallicRoughness":{
				"baseColorTexture":{
					"index":13
				},
				"metallicFactor":0
			}
		},
		{
			"doubleSided":true,
			"extensions":{
				"KHR_materials_specular":{
					"specularColorTexture":{
						"index":14
					}
				},
				"KHR_materials_ior":{
					"ior":1.4500000476837158
				}
			},
			"name":"Indian Elephant_eyes",
			"pbrMetallicRoughness":{
				"baseColorTexture":{
					"index":15
				},
				"metallicFactor":0
			}
		}
	],
	"meshes":[
		{
			"name":"Indian Elephant",
			"primitives":[
				{
					"attributes":{
						"POSITION":0,
						"NORMAL":1,
						"TEXCOORD_0":2
					},
					"indices":3,
					"material":0
				},
				{
					"attributes":{
						"POSITION":4,
						"NORMAL":5,
						"TEXCOORD_0":6
					},
					"indices":7,
					"material":1
				},
				{
					"attributes":{
						"POSITION":8,
						"NORMAL":9,
						"TEXCOORD_0":10
					},
					"indices":11,
					"material":2
				},
				{
					"attributes":{
						"POSITION":12,
						"NORMAL":13,
						"TEXCOORD_0":14
					},
					"indices":15,
					"material":3
				},
				{
					"attributes":{
						"POSITION":16,
						"NORMAL":17,
						"TEXCOORD_0":18
					},
					"indices":19,
					"material":4
				},
				{
					"attributes":{
						"POSITION":20,
						"NORMAL":21,
						"TEXCOORD_0":22
					},
					"indices":23,
					"material":5
				},
				{
					"attributes":{
						"POSITION":24,
						"NORMAL":25,
						"TEXCOORD_0":26
					},
					"indices":27,
					"material":6
				},
				{
					"attributes":{
						"POSITION":28,
						"NORMAL":29,
						"TEXCOORD_0":30
					},
					"indices":31,
					"material":7
				}
			]
		}
	],
	"textures":[
		{
			"sampler":0,
			"source":0
		},
		{
			"sampler":0,
			"source":0
		},
		{
			"sampler":0,
			"source":1
		},
		{
			"sampler":0,
			"source":1
		},
		{
			"sampler":0,
			"source":2
		},
		{
			"sampler":0,
			"source":2
		},
		{
			"sampler":0,
			"source":3
		},
		{
			"sampler":0,
			"source":3
		},
		{
			"sampler":0,
			"source":1
		},
		{
			"sampler":0,
			"source":1
		},
		{
			"sampler":0,
			"source":4
		},
		{
			"sampler":0,
			"source":4
		},
		{
			"sampler":0,
			"source":1
		},
		{
			"sampler":0,
			"source":1
		},
		{
			"sampler":0,
			"source":5
		},
		{
			"sampler":0,
			"source":5
		}
	],
	"images":[
		{
			"mimeType":"image/jpeg",
			"name":"IndianElephantBull_UpperTeeth_D",
			"uri":"textures/IndianElephantBull_UpperTeeth_D.jpg"
		},
		{
			"mimeType":"image/jpeg",
			"name":"IndianElephantBull_Body_D",
			"uri":"textures/IndianElephantBull_Body_D.jpg"
		},
		{
			"mimeType":"image/jpeg",
			"name":"IndianElephantBull_Nails_D",
			"uri":"textures/IndianElephantBull_Nails_D.jpg"
		},
		{
			"mimeType":"image/jpeg",
			"name":"IndianElephantBull_LowerTeeth_D",
			"uri":"textures/IndianElephantBull_LowerTeeth_D.jpg"
		},
		{
			"mimeType":"image/jpeg",
			"name":"IndianElephantBull_Tusks_D",
			"uri":"textures/IndianElephantBull_Tusks_D.jpg"
		},
		{
			"mimeType":"image/jpeg",
			"name":"IndianElephantBull_Eyes_D",
			"uri":"textures/IndianElephantBull_Eyes_D.jpg"
		}
	],
	"accessors":[
		{
			"bufferView":0,
			"componentType":5126,
			"count":20420,
			"max":[
				0.12718500196933746,
				1.664869785308838,
				2.6209797859191895
			],
			"min":[
				-0.12740598618984222,
				1.4631397724151611,
				2.456519842147827
			],
			"type":"VEC3"
		},
		{
			"bufferView":1,
			"componentType":5126,
			"count":20420,
			"type":"VEC3"
		},
		{
			"bufferView":2,
			"componentType":5126,
			"count":20420,
			"type":"VEC2"
		},
		{
			"bufferView":3,
			"componentType":5123,
			"count":120624,
			"type":"SCALAR"
		},
		{
			"bufferView":4,
			"componentType":5126,
			"count":23963,
			"max":[
				0.9418370127677917,
				2.613409996032715,
				3.5419399738311768
			],
			"min":[
				-0.9418370127677917,
				-0.007630603853613138,
				-0.5466969013214111
			],
			"type":"VEC3"
		},
		{
			"bufferView":5,
			"componentType":5126,
			"count":23963,
			"type":"VEC3"
		},
		{
			"bufferView":6,
			"componentType":5126,
			"count":23963,
			"type":"VEC2"
		},
		{
			"bufferView":7,
			"componentType":5123,
			"count":138780,
			"type":"SCALAR"
		},
		{
			"bufferView":8,
			"componentType":5126,
			"count":18254,
			"max":[
				0.592799961566925,
				0.11202799528837204,
				1.791929841041565
			],
			"min":[
				-0.5928030014038086,
				0.0029317259322851896,
				-0.1091649979352951
			],
			"type":"VEC3"
		},
		{
			"bufferView":9,
			"componentType":5126,
			"count":18254,
			"type":"VEC3"
		},
		{
			"bufferView":10,
			"componentType":5126,
			"count":18254,
			"type":"VEC2"
		},
		{
			"bufferView":11,
			"componentType":5123,
			"count":107136,
			"type":"SCALAR"
		},
		{
			"bufferView":12,
			"componentType":5126,
			"count":58997,
			"max":[
				0.12729600071907043,
				1.5852398872375488,
				2.5711400508880615
			],
			"min":[
				-0.12729600071907043,
				1.4065498113632202,
				2.376689910888672
			],
			"type":"VEC3"
		},
		{
			"bufferView":13,
			"componentType":5126,
			"count":58997,
			"type":"VEC3"
		},
		{
			"bufferView":14,
			"componentType":5126,
			"count":58997,
			"type":"VEC2"
		},
		{
			"bufferView":15,
			"componentType":5123,
			"count":120624,
			"type":"SCALAR"
		},
		{
			"bufferView":16,
			"componentType":5126,
			"count":247,
			"max":[
				0.08521600812673569,
				1.6076197624206543,
				2.7025399208068848
			],
			"min":[
				-0.08617719262838364,
				1.327879786491394,
				2.4032700061798096
			],
			"type":"VEC3"
		},
		{
			"bufferView":17,
			"componentType":5126,
			"count":247,
			"type":"VEC3"
		},
		{
			"bufferView":18,
			"componentType":5126,
			"count":247,
			"type":"VEC2"
		},
		{
			"bufferView":19,
			"componentType":5123,
			"count":1344,
			"type":"SCALAR"
		},
		{
			"bufferView":20,
			"componentType":5126,
			"count":10118,
			"max":[
				0.38334301114082336,
				1.6122797727584839,
				3.310999870300293
			],
			"min":[
				-0.38334301114082336,
				0.9766647815704346,
				2.6557400226593018
			],
			"type":"VEC3"
		},
		{
			"bufferView":21,
			"componentType":5126,
			"count":10118,
			"type":"VEC3"
		},
		{
			"bufferView":22,
			"componentType":5126,
			"count":10118,
			"type":"VEC2"
		},
		{
			"bufferView":23,
			"componentType":5123,
			"count":59904,
			"type":"SCALAR"
		},
		{
			"bufferView":24,
			"componentType":5126,
			"count":838,
			"max":[
				0.15161000192165375,
				1.79941987991333,
				2.7557997703552246
			],
			"min":[
				-0.15217800438404083,
				1.290949821472168,
				2.339010000228882
			],
			"type":"VEC3"
		},
		{
			"bufferView":25,
			"componentType":5126,
			"count":838,
			"type":"VEC3"
		},
		{
			"bufferView":26,
			"componentType":5126,
			"count":838,
			"type":"VEC2"
		},
		{
			"bufferView":27,
			"componentType":5123,
			"count":4674,
			"type":"SCALAR"
		},
		{
			"bufferView":28,
			"componentType":5126,
			"count":5844,
			"max":[
				0.3569919764995575,
				1.9636198282241821,
				2.7350900173187256
			],
			"min":[
				-0.3569919764995575,
				1.8888899087905884,
				2.6597900390625
			],
			"type":"VEC3"
		},
		{
			"bufferView":29,
			"componentType":5126,
			"count":5844,
			"type":"VEC3"
		},
		{
			"bufferView":30,
			"componentType":5126,
			"count":5844,
			"type":"VEC2"
		},
		{
			"bufferView":31,
			"componentType":5123,
			"count":34176,
			"type":"SCALAR"
		}
	],
	"bufferViews":[
		{
			"buffer":0,
			"byteLength":245040,
			"byteOffset":0,
			"target":34962
		},
		{
			"buffer":0,
			"byteLength":245040,
			"byteOffset":245040,
			"target":34962
		},
		{
			"buffer":0,
			"byteLength":163360,
			"byteOffset":490080,
			"target":34962
		},
		{
			"buffer":0,
			"byteLength":241248,
			"byteOffset":653440,
			"target":34963
		},
		{
			"buffer":0,
			"byteLength":287556,
			"byteOffset":894688,
			"target":34962
		},
		{
			"buffer":0,
			"byteLength":287556,
			"byteOffset":1182244,
			"target":34962
		},
		{
			"buffer":0,
			"byteLength":191704,
			"byteOffset":1469800,
			"target":34962
		},
		{
			"buffer":0,
			"byteLength":277560,
			"byteOffset":1661504,
			"target":34963
		},
		{
			"buffer":0,
			"byteLength":219048,
			"byteOffset":1939064,
			"target":34962
		},
		{
			"buffer":0,
			"byteLength":219048,
			"byteOffset":2158112,
			"target":34962
		},
		{
			"buffer":0,
			"byteLength":146032,
			"byteOffset":2377160,
			"target":34962
		},
		{
			"buffer":0,
			"byteLength":214272,
			"byteOffset":2523192,
			"target":34963
		},
		{
			"buffer":0,
			"byteLength":707964,
			"byteOffset":2737464,
			"target":34962
		},
		{
			"buffer":0,
			"byteLength":707964,
			"byteOffset":3445428,
			"target":34962
		},
		{
			"buffer":0,
			"byteLength":471976,
			"byteOffset":4153392,
			"target":34962
		},
		{
			"buffer":0,
			"byteLength":241248,
			"byteOffset":4625368,
			"target":34963
		},
		{
			"buffer":0,
			"byteLength":2964,
			"byteOffset":4866616,
			"target":34962
		},
		{
			"buffer":0,
			"byteLength":2964,
			"byteOffset":4869580,
			"target":34962
		},
		{
			"buffer":0,
			"byteLength":1976,
			"byteOffset":4872544,
			"target":34962
		},
		{
			"buffer":0,
			"byteLength":2688,
			"byteOffset":4874520,
			"target":34963
		},
		{
			"buffer":0,
			"byteLength":121416,
			"byteOffset":4877208,
			"target":34962
		},
		{
			"buffer":0,
			"byteLength":121416,
			"byteOffset":4998624,
			"target":34962
		},
		{
			"buffer":0,
			"byteLength":80944,
			"byteOffset":5120040,
			"target":34962
		},
		{
			"buffer":0,
			"byteLength":119808,
			"byteOffset":5200984,
			"target":34963
		},
		{
			"buffer":0,
			"byteLength":10056,
			"byteOffset":5320792,
			"target":34962
		},
		{
			"buffer":0,
			"byteLength":10056,
			"byteOffset":5330848,
			"target":34962
		},
		{
			"buffer":0,
			"byteLength":6704,
			"byteOffset":5340904,
			"target":34962
		},
		{
			"buffer":0,
			"byteLength":9348,
			"byteOffset":5347608,
			"target":34963
		},
		{
			"buffer":0,
			"byteLength":70128,
			"byteOffset":5356956,
			"target":34962
		},
		{
			"buffer":0,
			"byteLength":70128,
			"byteOffset":5427084,
			"target":34962
		},
		{
			"buffer":0,
			"byteLength":46752,
			"byteOffset":5497212,
			"target":34962
		},
		{
			"buffer":0,
			"byteLength":68352,
			"byteOffset":5543964,
			"target":34963
		}
	],
	"samplers":[
		{
			"magFilter":9729,
			"minFilter":9987
		}
	],
	"buffers":[
		{
			"byteLength":5612316,
			"uri":"mother.bin"
		}
	]
}
