{
	"asset":{
		"generator":"Khronos glTF Blender I/O v3.6.27",
		"version":"2.0"
	},
	"extensionsUsed":[
		"KHR_materials_specular",
		"KHR_materials_ior"
	],
	"scene":0,
	"scenes":[
		{
			"name":"Scene",
			"nodes":[
				0
			]
		}
	],
	"nodes":[
		{
			"mesh":0,
			"name":"Kangaroo_42266.Shape"
		}
	],
	"materials":[
		{
			"doubleSided":true,
			"extensions":{
				"KHR_materials_specular":{
					"specularColorTexture":{
						"index":0
					}
				},
				"KHR_materials_ior":{
					"ior":1.4500000476837158
				}
			},
			"name":"Kangaroo_42266_claws.001",
			"pbrMetallicRoughness":{
				"baseColorTexture":{
					"index":1
				},
				"metallicFactor":0
			}
		},
		{
			"doubleSided":true,
			"extensions":{
				"KHR_materials_specular":{
					"specularColorTexture":{
						"index":2
					}
				},
				"KHR_materials_ior":{
					"ior":1.4500000476837158
				}
			},
			"name":"Kangaroo_42266_body",
			"pbrMetallicRoughness":{
				"baseColorTexture":{
					"index":3
				},
				"metallicFactor":0
			}
		},
		{
			"doubleSided":true,
			"extensions":{
				"KHR_materials_specular":{
					"specularColorTexture":{
						"index":4
					}
				},
				"KHR_materials_ior":{
					"ior":1.4500000476837158
				}
			},
			"name":"Kangaroo_42266_teeth",
			"pbrMetallicRoughness":{
				"baseColorTexture":{
					"index":5
				},
				"metallicFactor":0
			}
		},
		{
			"doubleSided":true,
			"extensions":{
				"KHR_materials_specular":{
					"specularColorTexture":{
						"index":6
					}
				},
				"KHR_materials_ior":{
					"ior":1.4500000476837158
				}
			},
			"name":"Kangaroo_42266_eyes.001",
			"pbrMetallicRoughness":{
				"baseColorTexture":{
					"index":7
				},
				"metallicFactor":0
			}
		},
		{
			"doubleSided":true,
			"extensions":{
				"KHR_materials_specular":{
					"specularColorFactor":[
						1.0000000237078934,
						1.0000000237078934,
						1.0000000237078934
					]
				},
				"KHR_materials_ior":{
					"ior":1.4500000476837158
				}
			},
			"name":"Kangaroo_42266_whiskers",
			"pbrMetallicRoughness":{
				"metallicFactor":0
			}
		}
	],
	"meshes":[
		{
			"name":"Kangaroo_42266.001",
			"primitives":[
				{
					"attributes":{
						"POSITION":0,
						"NORMAL":1,
						"TEXCOORD_0":2
					},
					"indices":3,
					"material":0
				},
				{
					"attributes":{
						"POSITION":4,
						"NORMAL":5,
						"TEXCOORD_0":6
					},
					"indices":7,
					"material":1
				},
				{
					"attributes":{
						"POSITION":8,
						"NORMAL":9,
						"TEXCOORD_0":10
					},
					"indices":11,
					"material":2
				},
				{
					"attributes":{
						"POSITION":12,
						"NORMAL":13,
						"TEXCOORD_0":14
					},
					"indices":15,
					"material":3
				},
				{
					"attributes":{
						"POSITION":16,
						"NORMAL":17,
						"TEXCOORD_0":18
					},
					"indices":19,
					"material":4
				}
			]
		}
	],
	"textures":[
		{
			"sampler":0,
			"source":0
		},
		{
			"sampler":0,
			"source":1
		},
		{
			"sampler":0,
			"source":0
		},
		{
			"sampler":0,
			"source":1
		},
		{
			"sampler":0,
			"source":0
		},
		{
			"sampler":0,
			"source":1
		},
		{
			"sampler":0,
			"source":0
		},
		{
			"sampler":0,
			"source":1
		}
	],
	"images":[
		{
			"mimeType":"image/png",
			"name":"Image",
			"uri":"Image.png"
		},
		{
			"mimeType":"image/jpeg",
			"name":"Kangaroo_D",
			"uri":"Kangaroo_D.jpg"
		}
	],
	"accessors":[
		{
			"bufferView":0,
			"componentType":5126,
			"count":1617,
			"max":[
				0.19473430514335632,
				0.5084477663040161,
				0.7693713307380676
			],
			"min":[
				-0.19473430514335632,
				0.01155827660113573,
				0.5687007904052734
			],
			"type":"VEC3"
		},
		{
			"bufferView":1,
			"componentType":5126,
			"count":1617,
			"type":"VEC3"
		},
		{
			"bufferView":2,
			"componentType":5126,
			"count":1617,
			"type":"VEC2"
		},
		{
			"bufferView":3,
			"componentType":5123,
			"count":8340,
			"type":"SCALAR"
		},
		{
			"bufferView":4,
			"componentType":5126,
			"count":26708,
			"max":[
				0.21883180737495422,
				1.4570640325546265,
				1.0472540855407715
			],
			"min":[
				-0.21883180737495422,
				-0.0023076743818819523,
				-1.3550139665603638
			],
			"type":"VEC3"
		},
		{
			"bufferView":5,
			"componentType":5126,
			"count":26708,
			"type":"VEC3"
		},
		{
			"bufferView":6,
			"componentType":5126,
			"count":26708,
			"type":"VEC2"
		},
		{
			"bufferView":7,
			"componentType":5123,
			"count":155004,
			"type":"SCALAR"
		},
		{
			"bufferView":8,
			"componentType":5126,
			"count":10660,
			"max":[
				0.026038208976387978,
				1.1540088653564453,
				1.0207480192184448
			],
			"min":[
				-0.026039430871605873,
				1.1267889738082886,
				0.9704782366752625
			],
			"type":"VEC3"
		},
		{
			"bufferView":9,
			"componentType":5126,
			"count":10660,
			"type":"VEC3"
		},
		{
			"bufferView":10,
			"componentType":5126,
			"count":10660,
			"type":"VEC2"
		},
		{
			"bufferView":11,
			"componentType":5123,
			"count":59760,
			"type":"SCALAR"
		},
		{
			"bufferView":12,
			"componentType":5126,
			"count":2250,
			"max":[
				0.05753769725561142,
				1.2645078897476196,
				0.9167311787605286
			],
			"min":[
				-0.057537950575351715,
				1.2404168844223022,
				0.8919740915298462
			],
			"type":"VEC3"
		},
		{
			"bufferView":13,
			"componentType":5126,
			"count":2250,
			"type":"VEC3"
		},
		{
			"bufferView":14,
			"componentType":5126,
			"count":2250,
			"type":"VEC2"
		},
		{
			"bufferView":15,
			"componentType":5123,
			"count":13248,
			"type":"SCALAR"
		},
		{
			"bufferView":16,
			"componentType":5126,
			"count":2264,
			"max":[
				0.08326136320829391,
				1.3006179332733154,
				1.036586046218872
			],
			"min":[
				-0.08326136320829391,
				1.1188669204711914,
				0.8919082283973694
			],
			"type":"VEC3"
		},
		{
			"bufferView":17,
			"componentType":5126,
			"count":2264,
			"type":"VEC3"
		},
		{
			"bufferView":18,
			"componentType":5126,
			"count":2264,
			"type":"VEC2"
		},
		{
			"bufferView":19,
			"componentType":5123,
			"count":12480,
			"type":"SCALAR"
		}
	],
	"bufferViews":[
		{
			"buffer":0,
			"byteLength":19404,
			"byteOffset":0,
			"target":34962
		},
		{
			"buffer":0,
			"byteLength":19404,
			"byteOffset":19404,
			"target":34962
		},
		{
			"buffer":0,
			"byteLength":12936,
			"byteOffset":38808,
			"target":34962
		},
		{
			"buffer":0,
			"byteLength":16680,
			"byteOffset":51744,
			"target":34963
		},
		{
			"buffer":0,
			"byteLength":320496,
			"byteOffset":68424,
			"target":34962
		},
		{
			"buffer":0,
			"byteLength":320496,
			"byteOffset":388920,
			"target":34962
		},
		{
			"buffer":0,
			"byteLength":213664,
			"byteOffset":709416,
			"target":34962
		},
		{
			"buffer":0,
			"byteLength":310008,
			"byteOffset":923080,
			"target":34963
		},
		{
			"buffer":0,
			"byteLength":127920,
			"byteOffset":1233088,
			"target":34962
		},
		{
			"buffer":0,
			"byteLength":127920,
			"byteOffset":1361008,
			"target":34962
		},
		{
			"buffer":0,
			"byteLength":85280,
			"byteOffset":1488928,
			"target":34962
		},
		{
			"buffer":0,
			"byteLength":119520,
			"byteOffset":1574208,
			"target":34963
		},
		{
			"buffer":0,
			"byteLength":27000,
			"byteOffset":1693728,
			"target":34962
		},
		{
			"buffer":0,
			"byteLength":27000,
			"byteOffset":1720728,
			"target":34962
		},
		{
			"buffer":0,
			"byteLength":18000,
			"byteOffset":1747728,
			"target":34962
		},
		{
			"buffer":0,
			"byteLength":26496,
			"byteOffset":1765728,
			"target":34963
		},
		{
			"buffer":0,
			"byteLength":27168,
			"byteOffset":1792224,
			"target":34962
		},
		{
			"buffer":0,
			"byteLength":27168,
			"byteOffset":1819392,
			"target":34962
		},
		{
			"buffer":0,
			"byteLength":18112,
			"byteOffset":1846560,
			"target":34962
		},
		{
			"buffer":0,
			"byteLength":24960,
			"byteOffset":1864672,
			"target":34963
		}
	],
	"samplers":[
		{
			"magFilter":9729,
			"minFilter":9987
		}
	],
	"buffers":[
		{
			"byteLength":1889632,
			"uri":"kangarooMother.bin"
		}
	]
}
