{
	"asset":{
		"generator":"Khronos glTF Blender I/O v3.6.27",
		"version":"2.0"
	},
	"scene":0,
	"scenes":[
		{
			"name":"Scene",
			"nodes":[
				0,
				1
			]
		}
	],
	"nodes":[
		{
			"mesh":0,
			"name":"Tree_2",
			"rotation":[
				0.70710688829422,
				0,
				0,
				0.7071066498756409
			],
			"translation":[
				0.11836671829223633,
				0.24580621719360352,
				-0.5710447430610657
			]
		},
		{
			"mesh":1,
			"name":"Tree_1",
			"rotation":[
				0.70710688829422,
				0,
				0,
				0.7071066498756409
			],
			"translation":[
				0.11836671829223633,
				0.24580621719360352,
				-0.5710447430610657
			]
		}
	],
	"materials":[
		{
			"doubleSided":true,
			"name":"Treetop_2",
			"pbrMetallicRoughness":{
				"baseColorFactor":[
					0.46666669845581055,
					0.9921569228172302,
					0,
					1
				],
				"metallicFactor":0,
				"roughnessFactor":0.5
			}
		},
		{
			"doubleSided":true,
			"name":"Trunk_2",
			"pbrMetallicRoughness":{
				"baseColorFactor":[
					0.46666669845581055,
					0.26274511218070984,
					0,
					1
				],
				"metallicFactor":0,
				"roughnessFactor":0.5
			}
		},
		{
			"doubleSided":true,
			"name":"Trunk_1",
			"pbrMetallicRoughness":{
				"baseColorFactor":[
					0.4235294461250305,
					0.2705882489681244,
					0.07058823853731155,
					1
				],
				"metallicFactor":0,
				"roughnessFactor":0.5
			}
		},
		{
			"doubleSided":true,
			"name":"Treetop_1",
			"pbrMetallicRoughness":{
				"baseColorFactor":[
					0.2196078598499298,
					0.9921569228172302,
					0,
					1
				],
				"metallicFactor":0,
				"roughnessFactor":0.5
			}
		}
	],
	"meshes":[
		{
			"name":"Tree_2",
			"primitives":[
				{
					"attributes":{
						"POSITION":0,
						"NORMAL":1,
						"TEXCOORD_0":2
					},
					"indices":3,
					"material":0
				},
				{
					"attributes":{
						"POSITION":4,
						"NORMAL":5,
						"TEXCOORD_0":6
					},
					"indices":7,
					"material":1
				}
			]
		},
		{
			"name":"Tree_1",
			"primitives":[
				{
					"attributes":{
						"POSITION":8,
						"NORMAL":9,
						"TEXCOORD_0":10
					},
					"indices":11,
					"material":2
				},
				{
					"attributes":{
						"POSITION":12,
						"NORMAL":13,
						"TEXCOORD_0":14
					},
					"indices":15,
					"material":3
				}
			]
		}
	],
	"accessors":[
		{
			"bufferView":0,
			"componentType":5126,
			"count":726,
			"max":[
				37.239070892333984,
				14.61639404296875,
				-16.699237823486328
			],
			"min":[
				3.7320480346679688,
				-21.428361892700195,
				-31.15345001220703
			],
			"type":"VEC3"
		},
		{
			"bufferView":1,
			"componentType":5126,
			"count":726,
			"type":"VEC3"
		},
		{
			"bufferView":2,
			"componentType":5126,
			"count":726,
			"type":"VEC2"
		},
		{
			"bufferView":3,
			"componentType":5123,
			"count":726,
			"type":"SCALAR"
		},
		{
			"bufferView":4,
			"componentType":5126,
			"count":180,
			"max":[
				32.10638427734375,
				12.146371841430664,
				1.2245181798934937
			],
			"min":[
				7.527433395385742,
				-16.83428192138672,
				-28.10155487060547
			],
			"type":"VEC3"
		},
		{
			"bufferView":5,
			"componentType":5126,
			"count":180,
			"type":"VEC3"
		},
		{
			"bufferView":6,
			"componentType":5126,
			"count":180,
			"type":"VEC2"
		},
		{
			"bufferView":7,
			"componentType":5123,
			"count":270,
			"type":"SCALAR"
		},
		{
			"bufferView":8,
			"componentType":5126,
			"count":108,
			"max":[
				-13.06740951538086,
				0.6314632892608643,
				0.842565655708313
			],
			"min":[
				-27.277568817138672,
				-2.7060186862945557,
				-23.94226837158203
			],
			"type":"VEC3"
		},
		{
			"bufferView":9,
			"componentType":5126,
			"count":108,
			"type":"VEC3"
		},
		{
			"bufferView":10,
			"componentType":5126,
			"count":108,
			"type":"VEC2"
		},
		{
			"bufferView":11,
			"componentType":5123,
			"count":162,
			"type":"SCALAR"
		},
		{
			"bufferView":12,
			"componentType":5126,
			"count":480,
			"max":[
				-6.416292190551758,
				8.38842487335205,
				-17.4849853515625
			],
			"min":[
				-33.0363655090332,
				-8.384517669677734,
				-30.793819427490234
			],
			"type":"VEC3"
		},
		{
			"bufferView":13,
			"componentType":5126,
			"count":480,
			"type":"VEC3"
		},
		{
			"bufferView":14,
			"componentType":5126,
			"count":480,
			"type":"VEC2"
		},
		{
			"bufferView":15,
			"componentType":5123,
			"count":480,
			"type":"SCALAR"
		}
	],
	"bufferViews":[
		{
			"buffer":0,
			"byteLength":8712,
			"byteOffset":0,
			"target":34962
		},
		{
			"buffer":0,
			"byteLength":8712,
			"byteOffset":8712,
			"target":34962
		},
		{
			"buffer":0,
			"byteLength":5808,
			"byteOffset":17424,
			"target":34962
		},
		{
			"buffer":0,
			"byteLength":1452,
			"byteOffset":23232,
			"target":34963
		},
		{
			"buffer":0,
			"byteLength":2160,
			"byteOffset":24684,
			"target":34962
		},
		{
			"buffer":0,
			"byteLength":2160,
			"byteOffset":26844,
			"target":34962
		},
		{
			"buffer":0,
			"byteLength":1440,
			"byteOffset":29004,
			"target":34962
		},
		{
			"buffer":0,
			"byteLength":540,
			"byteOffset":30444,
			"target":34963
		},
		{
			"buffer":0,
			"byteLength":1296,
			"byteOffset":30984,
			"target":34962
		},
		{
			"buffer":0,
			"byteLength":1296,
			"byteOffset":32280,
			"target":34962
		},
		{
			"buffer":0,
			"byteLength":864,
			"byteOffset":33576,
			"target":34962
		},
		{
			"buffer":0,
			"byteLength":324,
			"byteOffset":34440,
			"target":34963
		},
		{
			"buffer":0,
			"byteLength":5760,
			"byteOffset":34764,
			"target":34962
		},
		{
			"buffer":0,
			"byteLength":5760,
			"byteOffset":40524,
			"target":34962
		},
		{
			"buffer":0,
			"byteLength":3840,
			"byteOffset":46284,
			"target":34962
		},
		{
			"buffer":0,
			"byteLength":960,
			"byteOffset":50124,
			"target":34963
		}
	],
	"buffers":[
		{
			"byteLength":51084,
			"uri":"trees2.bin"
		}
	]
}
